<svg xmlns="http://www.w3.org/2000/svg" xmlns:xlink="http://www.w3.org/1999/xlink" width="557.85" height="1339.607" viewBox="0 0 557.85 1339.607">
  <defs>
    <style>
      .cls-1 {
        fill: #c9cacb;
      }

      .cls-2 {
        fill: #e7e9eb;
      }

      .cls-3 {
        fill: url(#linear-gradient);
      }
    </style>
    <linearGradient id="linear-gradient" x1="243.703" y1="1339.607" x2="243.703" y2="867.876" gradientUnits="userSpaceOnUse">
      <stop offset="0.247" stop-color="#e7e9eb"/>
      <stop offset="0.328" stop-color="#e7e9eb" stop-opacity="0.98"/>
      <stop offset="0.421" stop-color="#e7e9eb" stop-opacity="0.921"/>
      <stop offset="0.52" stop-color="#e7e9eb" stop-opacity="0.824"/>
      <stop offset="0.622" stop-color="#e7e9eb" stop-opacity="0.688"/>
      <stop offset="0.728" stop-color="#e7e9eb" stop-opacity="0.513"/>
      <stop offset="0.836" stop-color="#e7e9eb" stop-opacity="0.298"/>
      <stop offset="0.945" stop-color="#e7e9eb" stop-opacity="0.05"/>
      <stop offset="0.965" stop-color="#e7e9eb" stop-opacity="0"/>
    </linearGradient>
  </defs>
  <g id="Layer_2" data-name="Layer 2">
    <g id="Layer_1-2" data-name="Layer 1">
      <g>
        <path class="cls-1" d="M341.7,519.46s39.455-5.976,47.885,18.075.071,24.1.071,24.1,30.873,5.887,28.149,24.752,20.77,24.734,28.149,24.753-8.233,2-3.308,17.426,27.061,15.478,21.749,24.672-26.169,10.839-17.494,32.508c0,0-11.467,26.706-3.652,38.842S427.57,734,420.991,725.716s-10.1-9.534-19.737-21.7-20.31-22.1-29.784-21.841.352-9.861-8.87-18.3-31.442-14.7-26.569-24.446,10.617-35.2,4.362-40.7,5.73-11.772,1.993-23.29S324.369,555.985,341.7,519.46Z"/>
        <path class="cls-1" d="M375.152,228.423s6.024,11.5-9.539,26.39,9.539,55.757,9.539,55.757c66.656,113.979,31.956,188.257-71.778,297.113S219.8,1301.077,219.8,1301.077c-29.192,24.073-31.359,0-31.359,0s-39.734-540.521,70.425-689.232c69.735-94.138,191.426-204.167,76.18-305.3,0,0-14.366.784-21.295-9.408s-10.064-14.9-10.064-14.9,2.352,3.92-45.471,0C258.214,282.24,271.988,229.178,375.152,228.423Z"/>
        <path class="cls-1" d="M228.4,254.568h42.29c30.351,0,58.652-46.226,59.6-59.433S198.587,226.9,228.4,254.568Z"/>
        <path class="cls-1" d="M19.913,266.509c-17.69,13.416-4.107,35.382,55.964,22.57s156.8-24.273,152.523-34.511-72.64-30.188-115.092-20.754S30.29,258.64,19.913,266.509Z"/>
        <path class="cls-1" d="M334.885,212.964s-20.744,8.97-19.062,0,30.836-46.534,53.822-72.884S420.1,81.773,441.408,79.53s29.714,15.7,7.849,32.518S338.81,196.705,334.885,212.964Z"/>
        <path class="cls-1" d="M343.145,203.586s61.613-52.935,99.4-64.994,79.59-12.863,100.493-32.962,26.188-62.877-28.138-41-58.173,34.4-83.482,49.845C381.916,144.684,343.145,203.586,343.145,203.586Z"/>
        <path class="cls-1" d="M431.417,105.007s7.911-44.4,58.56-66.1,60.654-41.39,20.9-37.786C443.452,7.232,419.229,42.6,398.327,79.34s-41,69.7-31.354,72.115S431.417,105.007,431.417,105.007Z"/>
        <path class="cls-1" d="M214.441,245.987s-79.585-35.8-116.515-33.192-56.679-6.088-44.195-24.35,38.522-35.57,68.549-31.264S229.788,224.1,234.53,235.405s36.16,19.163,36.16,19.163Z"/>
        <path class="cls-1" d="M364.486,164.033s2.531-20.315,29.5-65.874S454.25-.239,419.347,0s-57.227,20.338-68.3,58.559-33.619,128.124-20.759,136.575S364.486,164.033,364.486,164.033Z"/>
        <path class="cls-1" d="M298.711,131.073c-16.231-50.563-21.728-78.766,8.138-95.037s48.762-1.5,44.2,47.518-14.172,83.023-20.759,111.581-14.463,17.829-14.463,17.829Z"/>
        <path class="cls-1" d="M262.654,223.665s-33.551-17.274-46.774-75.52S275.231,73.5,291.044,83.023s23.228,122.519,23.228,122.519Z"/>
        <path class="cls-1" d="M164.384,192.761s-18.555-24.6,8.067-40.683,48.3-3.173,63.276,12.961,45.177,51.389,34.963,63.384-34.963,14.166-34.963,14.166Z"/>
        <path class="cls-1" d="M295.307,237.183s-9.906,13.187,3.854,12.8,84.69-18.106,98.5-24.374S450.5,194.13,450.5,183.657s1.088-12.645-29.514-17.454c-25.074-3.94-95.362,41.135-108.063,59.405C306.7,234.562,295.307,237.183,295.307,237.183Z"/>
        <path class="cls-1" d="M291.044,246.764s-17.361,48.37-66.417,83.275-76.414,39.622-99.055,36.792S135.765,297.45,291.044,246.764Z"/>
        <path class="cls-1" d="M1.045,344.189S-6.5,375.321,18.969,359.284s149.532-84.607,219.1-92.775,43.157-25.148,22.4-26.092S66.138,264,1.045,344.189Z"/>
        <path class="cls-2" d="M262.2,215.355c-33.8,39.213-17.342,51.246,17.767,25.623s35.763-22.242,64.082-42.271c17.738-12.545,9.244-28.858-8.1-27.338S273.53,202.2,262.2,215.355Z"/>
      </g>
      <rect class="cls-3" x="120.629" y="867.876" width="246.148" height="471.731"/>
      <path class="cls-1" d="M213.164,773.959s-32.156-29.031-50.019-10.854c-13.017,13.246-17.6,18.558-17.6,18.558s-35.854-14-34.836-3.17c2.187,23.272-28.683,19.752-34.886,15.757s5.821,6.156-6.695,16.426-22.886,4.569-23.425,15.173,7.835,17.037-11.225,30.511c0,0-4.888,28.65-18.044,34.589s12.066,6.957,22.092,3.578,9.636,6.956,24.337,1.977,29.062-7.515,36.872-2.146,5.064-8.468,17.389-10.536,34.382,4.75,35.589-6.08,9.067-25.131,17.307-26.348,2.74-23.181,12.137-30.819S207.859,814.037,213.164,773.959Z"/>
    </g>
  </g>
</svg>
