<svg xmlns="http://www.w3.org/2000/svg" width="512.005" height="383.996" viewBox="0 0 512.005 383.996">
  <defs>
    <style>
      .cls-1 {
        fill: #fff;
      }
    </style>
  </defs>
  <g id="Layer_2" data-name="Layer 2">
    <g id="Layer_1-2" data-name="Layer 1">
      <path class="cls-1" d="M215.03,7.046,126.06,96H24A23.993,23.993,0,0,0,0,120V264a24,24,0,0,0,24,24H126.06l88.97,88.95c15.03,15.03,40.97,4.47,40.97-16.97V24.016C256,2.556,230.04-7.964,215.03,7.046ZM461.64,192l45.64-45.64a16.139,16.139,0,0,0,0-22.82l-22.82-22.82a16.139,16.139,0,0,0-22.82,0L416,146.356l-45.64-45.64a16.139,16.139,0,0,0-22.82,0l-22.82,22.82a16.139,16.139,0,0,0,0,22.82L370.36,192l-45.63,45.63a16.139,16.139,0,0,0,0,22.82l22.82,22.82a16.139,16.139,0,0,0,22.82,0L416,237.636l45.64,45.64a16.139,16.139,0,0,0,22.82,0l22.82-22.82a16.139,16.139,0,0,0,0-22.82Z"/>
    </g>
  </g>
</svg>
