<!-- Generator: Adobe Illustrator 25.2.0, SVG Export Plug-In  -->
<svg version="1.1" xmlns="http://www.w3.org/2000/svg" xmlns:xlink="http://www.w3.org/1999/xlink" x="0px" y="0px"
	 width="439.897px" height="145.79px" viewBox="0 0 439.897 145.79"
	 style="overflow:visible;enable-background:new 0 0 439.897 145.79;" xml:space="preserve">
<style type="text/css">
	.st0{fill:#FFFFFF;}
</style>
<defs>
</defs>
<g>
	<g>
		<path class="st0" d="M146.592,53.3h-20.545v-2.12c1.071-0.39,2.157-0.731,3.253-1.024s2.278-0.536,3.546-0.731V5.922H121.66
			l-3.875,10.456h-1.828c-0.146-0.975-0.269-2.084-0.366-3.327c-0.098-1.243-0.183-2.51-0.256-3.802
			c-0.073-1.291-0.135-2.559-0.183-3.802c-0.049-1.243-0.073-2.351-0.073-3.327h42.479c0,0.976-0.025,2.072-0.074,3.29
			c-0.049,1.219-0.111,2.475-0.185,3.765c-0.074,1.292-0.148,2.559-0.222,3.802c-0.074,1.243-0.185,2.376-0.332,3.4h-1.923
			l-3.844-10.456h-11.113v43.503c1.267,0.245,2.449,0.488,3.546,0.731c1.097,0.245,2.157,0.585,3.181,1.024V53.3z"/>
		<path class="st0" d="M175.259,22.227c-0.537,0.292-1.207,0.89-2.011,1.791c-0.804,0.902-1.524,2.23-2.157,3.985v21.715
			c0.975,0.098,1.949,0.281,2.924,0.548c0.975,0.269,1.949,0.67,2.925,1.207V53.3h-17.255v-1.828
			c0.877-0.487,1.706-0.853,2.486-1.097c0.779-0.244,1.56-0.463,2.34-0.658V20.984l-4.826-0.585v-1.901
			c1.559-0.682,3.168-1.23,4.826-1.645c1.656-0.414,3.241-0.743,4.752-0.987h1.828v7.75h0.292c0.438-0.975,1.06-1.949,1.864-2.925
			c0.804-0.975,1.729-1.852,2.778-2.632c1.048-0.779,2.193-1.377,3.437-1.792c1.243-0.414,2.522-0.548,3.838-0.402
			c0.34,0.634,0.646,1.329,0.914,2.084c0.267,0.756,0.523,1.548,0.768,2.376v1.901H175.259z"/>
		<path class="st0" d="M204.021,53.3H187.79v-1.828c0.731-0.39,1.486-0.719,2.267-0.987c0.779-0.267,1.632-0.523,2.559-0.768V20.984
			l-4.826-0.585v-1.901c1.413-0.585,2.949-1.097,4.606-1.536c1.656-0.438,3.314-0.804,4.972-1.097h1.828v33.852
			c0.975,0.245,1.852,0.5,2.632,0.768c0.779,0.269,1.51,0.598,2.193,0.987V53.3z M191.227,4.314c0-1.316,0.426-2.364,1.279-3.144
			c0.853-0.779,1.986-1.17,3.4-1.17c1.413,0,2.534,0.391,3.363,1.17c0.828,0.78,1.243,1.828,1.243,3.144s-0.415,2.352-1.243,3.107
			c-0.83,0.756-1.95,1.133-3.363,1.133c-1.414,0-2.547-0.377-3.4-1.133C191.653,6.666,191.227,5.63,191.227,4.314z"/>
		<path class="st0" d="M233.91,43.722c0,1.073,0.024,2,0.073,2.778c0.048,0.78,0.097,1.609,0.146,2.486l5.044,0.731v1.535
			c-1.219,0.634-2.571,1.195-4.058,1.682c-1.487,0.487-2.913,0.853-4.277,1.097h-1.828c-0.488-1.121-0.78-2.351-0.877-3.692
			c-0.098-1.34-0.171-2.815-0.219-4.423h-0.366c-0.195,0.976-0.573,1.962-1.133,2.961c-0.561,1-1.292,1.89-2.193,2.668
			c-0.902,0.78-1.962,1.415-3.18,1.901c-1.219,0.487-2.608,0.731-4.167,0.731c-2.974,0-5.399-0.901-7.275-2.705
			c-1.877-1.803-2.815-4.167-2.815-7.092c0-2.241,0.45-4.082,1.353-5.52c0.901-1.437,2.23-2.57,3.985-3.4
			c1.754-0.828,3.923-1.426,6.507-1.792c2.583-0.365,5.581-0.645,8.993-0.84c0.194-2.095,0.256-3.985,0.183-5.667
			c-0.073-1.682-0.341-3.119-0.804-4.314c-0.464-1.194-1.146-2.12-2.047-2.778c-0.903-0.658-2.084-0.987-3.546-0.987
			c-0.683,0-1.451,0.037-2.303,0.109c-0.854,0.073-1.694,0.281-2.522,0.622l-3.437,8.774h-1.901
			c-0.488-1.462-0.914-2.973-1.28-4.533c-0.365-1.56-0.597-3.095-0.694-4.606c1.852-1.121,3.912-1.998,6.178-2.632
			c2.267-0.633,4.789-0.951,7.567-0.951c2.486,0,4.472,0.354,5.959,1.061c1.486,0.707,2.62,1.621,3.4,2.742
			c0.779,1.122,1.291,2.365,1.535,3.729c0.244,1.365,0.366,2.73,0.366,4.095c0,2.924-0.062,5.739-0.183,8.444
			C233.97,38.641,233.91,41.236,233.91,43.722z M219.799,49.645c1.218,0,2.291-0.243,3.217-0.731
			c0.926-0.487,1.706-1.072,2.34-1.755c0.633-0.682,1.145-1.376,1.536-2.083c0.389-0.706,0.658-1.304,0.804-1.792v-7.677
			c-2.828,0-5.143,0.146-6.946,0.438c-1.804,0.292-3.217,0.756-4.241,1.389c-1.023,0.634-1.731,1.426-2.121,2.376
			c-0.391,0.951-0.584,2.036-0.584,3.254c0,2.096,0.536,3.717,1.608,4.862C216.483,49.072,217.946,49.645,219.799,49.645z"/>
		<path class="st0" d="M256.406,15.866c2.633,0,4.85,0.256,6.654,0.768c1.803,0.512,3.312,1.305,4.531,2.376
			c2.877-1.949,5.875-3.363,8.994-4.241c0.389,0.537,0.67,1.195,0.84,1.974c0.172,0.78,0.256,1.512,0.256,2.193l-0.949,1.755h-7.678
			c1.219,1.755,1.828,4.07,1.828,6.946c0,3.51-1.23,6.361-3.691,8.554c-2.463,2.194-6.059,3.291-10.785,3.291
			c-0.926,0-1.682-0.024-2.266-0.073c-0.586-0.048-1.244-0.121-1.975-0.219c-0.244,0.438-0.525,0.926-0.842,1.462
			c-0.316,0.537-0.475,1.097-0.475,1.682c0,0.976,0.561,1.744,1.682,2.303c1.121,0.561,2.523,1.06,4.203,1.499
			c1.682,0.438,3.51,0.89,5.484,1.353c1.975,0.464,3.814,1.097,5.52,1.901c1.707,0.804,3.133,1.853,4.277,3.144
			s1.742,2.961,1.791,5.008c0.049,1.754-0.354,3.338-1.205,4.752c-0.854,1.413-2.037,2.595-3.547,3.546
			c-1.512,0.951-3.326,1.682-5.447,2.193c-2.119,0.512-4.447,0.768-6.982,0.768c-5.312,0-9.321-0.902-12.026-2.705
			c-2.706-1.804-4.058-4.07-4.058-6.8c0-1.316,0.207-2.461,0.622-3.436c0.414-0.976,1.011-1.828,1.791-2.559
			c0.779-0.731,1.755-1.376,2.925-1.938c1.17-0.56,2.51-1.084,4.021-1.572c-1.072-0.487-1.962-1.157-2.668-2.011
			c-0.707-0.853-1.06-1.889-1.06-3.107c0-1.121,0.475-2.23,1.426-3.327s1.912-1.961,2.888-2.596
			c-2.779-0.731-4.912-2.12-6.398-4.167c-1.487-2.047-2.23-4.362-2.23-6.946c0-1.656,0.316-3.205,0.951-4.643
			c0.633-1.437,1.56-2.693,2.778-3.766c1.218-1.071,2.729-1.901,4.534-2.486C251.922,16.158,254.018,15.866,256.406,15.866z
			 M267.227,59.223c0-1.561-0.523-2.804-1.572-3.729c-1.047-0.926-2.352-1.682-3.91-2.267c-1.561-0.585-3.242-1.071-5.045-1.462
			c-1.805-0.39-3.486-0.829-5.045-1.316c-1.854,1.122-3.071,2.303-3.656,3.546c-0.585,1.243-0.877,2.522-0.877,3.838
			c0,2.583,0.926,4.521,2.778,5.812c1.854,1.291,4.533,1.938,8.043,1.938c1.803,0,3.303-0.171,4.496-0.512
			c1.195-0.342,2.145-0.793,2.852-1.353c0.707-0.561,1.207-1.232,1.5-2.011C267.08,60.928,267.227,60.1,267.227,59.223z
			 M248.438,27.637c0,1.17,0.133,2.279,0.401,3.327c0.268,1.049,0.706,1.963,1.315,2.742c0.609,0.78,1.426,1.402,2.449,1.865
			c1.025,0.464,2.291,0.694,3.803,0.694c2.826,0,4.85-0.828,6.068-2.486c1.219-1.656,1.828-3.704,1.828-6.142
			c0-2.632-0.598-4.716-1.791-6.251c-1.195-1.536-3.23-2.303-6.105-2.303c-2.973,0-5.045,0.744-6.215,2.23
			C249.021,22.8,248.438,24.908,248.438,27.637z"/>
		<path class="st0" d="M307.183,48.182c-0.391,0.83-0.999,1.609-1.827,2.34c-0.83,0.731-1.78,1.365-2.852,1.901
			c-1.073,0.537-2.243,0.962-3.51,1.28c-1.268,0.316-2.559,0.475-3.875,0.475c-2.877,0-5.41-0.451-7.604-1.353
			s-4.021-2.193-5.483-3.875c-1.463-1.682-2.572-3.692-3.327-6.032c-0.756-2.339-1.133-4.972-1.133-7.896
			c0-6.239,1.437-10.991,4.313-14.257c2.875-3.265,6.945-4.899,12.21-4.899c1.705,0,3.387,0.232,5.045,0.695
			c1.656,0.464,3.131,1.231,4.423,2.303c1.291,1.073,2.34,2.498,3.145,4.277c0.804,1.78,1.206,3.985,1.206,6.617
			c0,0.829-0.036,1.67-0.109,2.522c-0.073,0.854-0.208,1.768-0.402,2.742h-22.812c0,2.047,0.256,3.96,0.768,5.739
			c0.512,1.78,1.279,3.327,2.304,4.643c1.023,1.316,2.314,2.353,3.875,3.107c1.559,0.756,3.387,1.133,5.483,1.133
			c1.705,0,3.437-0.243,5.19-0.731c1.755-0.487,3.071-1.121,3.948-1.901L307.183,48.182z M293.803,19.083
			c-2.778,0-4.898,0.939-6.36,2.815c-1.462,1.877-2.34,5.18-2.632,9.907h16.085c0.048-0.438,0.084-0.865,0.109-1.279
			c0.024-0.414,0.036-0.816,0.036-1.207c0-3.119-0.584-5.604-1.754-7.458C298.117,20.009,296.289,19.083,293.803,19.083z"/>
		<path class="st0" d="M311.584,64.194c0.926-0.342,1.803-0.866,2.633-1.572c0.828-0.708,1.547-1.499,2.156-2.376
			s1.072-1.84,1.39-2.888c0.316-1.048,0.426-2.083,0.329-3.107c-0.585-0.537-1.365-1.072-2.34-1.609
			c-0.976-0.536-1.828-0.925-2.56-1.169c-0.244-0.926-0.256-1.828-0.036-2.706s0.548-1.656,0.987-2.339
			c0.438-0.682,0.938-1.23,1.499-1.645c0.56-0.414,1.107-0.646,1.645-0.695c1.706,0.245,3.204,1,4.496,2.267
			c1.291,1.268,1.938,3.169,1.938,5.703c0,1.364-0.245,2.79-0.731,4.277c-0.488,1.486-1.195,2.888-2.12,4.204
			c-0.927,1.316-2.048,2.497-3.363,3.546c-1.316,1.048-2.804,1.815-4.46,2.303L311.584,64.194z"/>
		<path class="st0" d="M0,95.351c1.852-1.209,3.802-2.065,5.849-2.569v-6.215c0.633-0.486,1.376-0.962,2.23-1.426
			c0.852-0.462,1.693-0.865,2.522-1.206h1.828v9.578h10.967v3.802H12.429v21.097c0,2.911,0.463,4.972,1.389,6.184
			c0.926,1.213,2.315,1.819,4.167,1.819c0.877,0,1.974-0.061,3.291-0.183c1.316-0.121,2.437-0.353,3.363-0.695l0.512,1.097
			c-0.391,0.439-0.939,0.903-1.645,1.389c-0.708,0.488-1.512,0.951-2.413,1.389c-0.902,0.439-1.889,0.804-2.961,1.097
			c-1.073,0.292-2.169,0.439-3.29,0.439c-2.925,0-5.155-0.826-6.69-2.475c-1.536-1.649-2.303-4.319-2.303-8.008V97.315H0V95.351z"/>
		<path class="st0" d="M67.205,130.07H51.413v-1.828c1.17-0.633,2.632-1.218,4.387-1.755v-17.109c0-3.802-0.537-6.787-1.608-8.957
			c-1.073-2.168-3.023-3.253-5.849-3.253c-1.268,0-2.413,0.232-3.437,0.695c-1.023,0.464-1.95,1.06-2.778,1.791
			c-0.829,0.731-1.535,1.572-2.12,2.522c-0.585,0.951-1.023,1.938-1.316,2.961v21.349c0.779,0.195,1.522,0.415,2.23,0.658
			c0.706,0.244,1.4,0.61,2.083,1.097v1.828H27.285v-1.828c1.51-0.779,3.119-1.364,4.825-1.755V80.206l-5.557-0.585V77.72
			c1.413-0.585,3.059-1.097,4.936-1.536c1.875-0.438,3.667-0.804,5.374-1.097h1.828v25.81h0.073
			c1.024-2.291,2.498-4.241,4.424-5.849c1.925-1.608,4.252-2.413,6.982-2.413c1.949,0,3.692,0.232,5.228,0.695
			c1.535,0.464,2.815,1.279,3.838,2.449s1.803,2.742,2.34,4.716c0.536,1.974,0.804,4.473,0.804,7.494v18.498
			c0.828,0.195,1.656,0.415,2.486,0.658c0.828,0.244,1.608,0.61,2.339,1.097V130.07z"/>
		<path class="st0" d="M97.979,124.952c-0.391,0.83-1,1.609-1.828,2.34c-0.829,0.731-1.78,1.365-2.851,1.901
			c-1.073,0.537-2.243,0.962-3.51,1.28c-1.268,0.316-2.559,0.475-3.875,0.475c-2.876,0-5.41-0.451-7.604-1.353
			c-2.194-0.901-4.021-2.193-5.484-3.875s-2.571-3.692-3.327-6.032c-0.756-2.339-1.133-4.972-1.133-7.896
			c0-6.239,1.438-10.991,4.314-14.257c2.875-3.265,6.946-4.899,12.21-4.899c1.706,0,3.387,0.232,5.045,0.695
			c1.656,0.464,3.131,1.231,4.423,2.303c1.291,1.073,2.339,2.498,3.144,4.277c0.804,1.78,1.206,3.985,1.206,6.617
			c0,0.829-0.037,1.67-0.109,2.522c-0.073,0.854-0.208,1.768-0.402,2.742H75.386c0,2.047,0.256,3.96,0.768,5.739
			c0.512,1.78,1.28,3.327,2.303,4.643c1.023,1.316,2.314,2.353,3.875,3.107c1.56,0.756,3.387,1.133,5.483,1.133
			c1.706,0,3.437-0.243,5.191-0.731c1.754-0.487,3.071-1.121,3.948-1.901L97.979,124.952z M84.599,95.853
			c-2.778,0-4.898,0.939-6.361,2.815c-1.462,1.877-2.34,5.18-2.632,9.907H91.69c0.048-0.438,0.085-0.865,0.11-1.279
			c0.024-0.414,0.037-0.816,0.037-1.207c0-3.119-0.585-5.604-1.755-7.458C88.912,96.779,87.084,95.853,84.599,95.853z"/>
		<path class="st0" d="M121.447,111.792c0-3.071,0.402-5.788,1.207-8.152c0.804-2.364,1.961-4.362,3.473-5.996
			c1.51-1.632,3.327-2.875,5.447-3.729c2.12-0.853,4.471-1.28,7.056-1.28c3.021,0,5.629,0.464,7.823,1.389
			c2.194,0.927,3.985,2.23,5.374,3.912s2.413,3.692,3.071,6.032c0.658,2.339,0.987,4.948,0.987,7.823
			c0,6.142-1.561,10.87-4.68,14.184c-3.12,3.315-7.311,4.972-12.575,4.972c-2.925,0-5.46-0.451-7.604-1.353
			c-2.146-0.901-3.924-2.193-5.337-3.875c-1.414-1.682-2.475-3.704-3.181-6.069C121.8,117.288,121.447,114.668,121.447,111.792z
			 M128.466,111.792c0,2.193,0.207,4.266,0.622,6.214c0.414,1.95,1.071,3.645,1.974,5.082c0.901,1.438,2.083,2.572,3.546,3.4
			c1.462,0.829,3.217,1.243,5.264,1.243c2.632,0,4.789-1.291,6.471-3.875c1.682-2.583,2.522-6.604,2.522-12.063
			c0-2.242-0.208-4.325-0.622-6.251c-0.415-1.925-1.06-3.606-1.938-5.045c-0.877-1.437-1.999-2.57-3.363-3.4
			c-1.365-0.828-2.998-1.243-4.898-1.243c-2.877,0-5.191,1.292-6.946,3.875C129.343,102.312,128.466,106.333,128.466,111.792z"/>
		<path class="st0" d="M197.851,130.07h-15.72v-1.828c1.316-0.682,2.753-1.267,4.313-1.755v-17.328c0-3.704-0.537-6.628-1.608-8.773
			c-1.073-2.145-3.022-3.217-5.849-3.217c-1.219,0-2.352,0.219-3.4,0.658c-1.048,0.438-1.974,1.036-2.778,1.791
			c-0.804,0.756-1.499,1.609-2.083,2.559c-0.585,0.951-1.049,1.938-1.389,2.961v21.349c1.51,0.292,2.973,0.877,4.387,1.755v1.828
			h-15.792v-1.828c1.218-0.633,2.826-1.218,4.826-1.755V97.753l-4.826-0.585v-1.901c1.267-0.536,2.729-1.023,4.387-1.462
			c1.657-0.438,3.387-0.828,5.191-1.17h1.828v8.189h0.073c1.023-2.241,2.497-4.167,4.423-5.776c1.925-1.608,4.252-2.413,6.982-2.413
			c1.949,0,3.692,0.232,5.228,0.695c1.535,0.464,2.815,1.279,3.838,2.449s1.803,2.742,2.34,4.716
			c0.536,1.974,0.804,4.473,0.804,7.494v18.498c1.949,0.341,3.558,0.926,4.826,1.755V130.07z"/>
		<path class="st0" d="M217.218,130.07h-16.231v-1.828c1.608-0.779,3.217-1.364,4.826-1.755V80.206l-5.557-0.585V77.72
			c1.267-0.585,2.852-1.097,4.752-1.536c1.901-0.438,3.753-0.804,5.557-1.097h1.828v51.399c1.609,0.391,3.217,0.976,4.826,1.755
			V130.07z"/>
		<path class="st0" d="M220.596,97.168c-0.731-0.194-1.402-0.438-2.011-0.731c-0.61-0.292-1.23-0.633-1.864-1.024v-1.901h15.354
			v1.828c-1.024,0.683-2.413,1.292-4.167,1.828l9.295,21.642l1.38,4.533h0.145l1.097-4.606l6.946-21.569
			c-1.462-0.292-2.804-0.877-4.021-1.755v-1.901h12.503v1.901c-1.023,0.684-2.412,1.268-4.168,1.755l-11.406,32.901
			c-1.169,3.119-2.279,5.641-3.327,7.567c-1.048,1.925-2.096,3.448-3.144,4.569c-1.049,1.121-2.121,1.938-3.217,2.45
			c-1.097,0.512-2.279,0.889-3.546,1.133c-0.537-0.927-1.012-1.95-1.426-3.071c-0.415-1.122-0.768-2.194-1.06-3.217l0.95-1.755
			h7.604c0.292-0.391,0.548-0.768,0.768-1.133c0.22-0.366,0.45-0.817,0.695-1.353c0.243-0.537,0.512-1.219,0.804-2.047
			c0.292-0.83,0.633-1.877,1.023-3.144L220.596,97.168z"/>
		<path class="st0" d="M288.811,92.635c2.632,0,4.849,0.256,6.653,0.768c1.803,0.512,3.313,1.305,4.532,2.376
			c2.876-1.949,5.874-3.363,8.993-4.241c0.39,0.537,0.67,1.195,0.841,1.974c0.171,0.78,0.256,1.512,0.256,2.193l-0.95,1.755h-7.677
			c1.218,1.755,1.828,4.07,1.828,6.946c0,3.51-1.231,6.361-3.692,8.554c-2.462,2.194-6.058,3.291-10.784,3.291
			c-0.927,0-1.682-0.024-2.267-0.073c-0.585-0.048-1.243-0.121-1.975-0.219c-0.244,0.438-0.524,0.926-0.841,1.462
			c-0.317,0.537-0.475,1.097-0.475,1.682c0,0.976,0.56,1.744,1.682,2.303c1.12,0.561,2.522,1.06,4.203,1.499
			c1.682,0.438,3.51,0.89,5.484,1.353c1.974,0.464,3.813,1.097,5.52,1.901s3.132,1.853,4.277,3.144
			c1.145,1.291,1.742,2.961,1.791,5.008c0.048,1.754-0.354,3.338-1.206,4.752c-0.854,1.413-2.036,2.595-3.546,3.546
			c-1.512,0.951-3.327,1.682-5.447,2.193s-4.448,0.768-6.982,0.768c-5.313,0-9.322-0.902-12.027-2.705
			c-2.705-1.804-4.058-4.07-4.058-6.8c0-1.316,0.207-2.461,0.621-3.436c0.414-0.976,1.012-1.828,1.792-2.559
			c0.779-0.731,1.755-1.376,2.924-1.938c1.17-0.56,2.511-1.084,4.021-1.572c-1.072-0.487-1.962-1.157-2.668-2.011
			c-0.708-0.853-1.061-1.889-1.061-3.107c0-1.121,0.476-2.23,1.426-3.327s1.912-1.961,2.888-2.596
			c-2.778-0.731-4.911-2.12-6.397-4.167c-1.487-2.047-2.229-4.362-2.229-6.946c0-1.656,0.316-3.205,0.95-4.643
			c0.633-1.437,1.56-2.693,2.778-3.766c1.218-1.071,2.729-1.901,4.533-2.486C284.325,92.928,286.421,92.635,288.811,92.635z
			 M299.631,135.992c0-1.561-0.524-2.804-1.572-3.729c-1.048-0.926-2.352-1.682-3.911-2.267c-1.561-0.585-3.242-1.071-5.045-1.462
			c-1.804-0.39-3.485-0.829-5.045-1.316c-1.853,1.122-3.07,2.303-3.655,3.546c-0.585,1.243-0.878,2.522-0.878,3.838
			c0,2.583,0.926,4.521,2.778,5.812c1.853,1.291,4.533,1.938,8.043,1.938c1.803,0,3.302-0.171,4.496-0.512
			c1.194-0.342,2.145-0.793,2.852-1.353c0.706-0.561,1.206-1.232,1.499-2.011C299.484,137.698,299.631,136.87,299.631,135.992z
			 M280.841,104.407c0,1.17,0.134,2.279,0.402,3.327c0.267,1.049,0.706,1.963,1.315,2.742c0.609,0.78,1.426,1.402,2.449,1.865
			c1.024,0.464,2.291,0.694,3.803,0.694c2.826,0,4.849-0.828,6.068-2.486c1.218-1.656,1.827-3.704,1.827-6.142
			c0-2.632-0.597-4.716-1.791-6.251c-1.195-1.536-3.229-2.303-6.104-2.303c-2.974,0-5.045,0.744-6.215,2.23
			C281.426,99.57,280.841,101.678,280.841,104.407z"/>
		<path class="st0" d="M315.905,115.593c0-3.071,0.073-6.08,0.219-9.03c0.146-2.948,0.22-5.885,0.22-8.81l-4.825-0.585v-1.901
			c1.56-0.585,3.155-1.097,4.789-1.536c1.632-0.438,3.229-0.804,4.789-1.097h1.827c0,3.656-0.073,7.288-0.219,10.894
			c-0.146,3.608-0.22,7.19-0.22,10.748c0,1.901,0.109,3.607,0.329,5.118c0.22,1.512,0.609,2.778,1.17,3.802
			c0.56,1.023,1.327,1.816,2.303,2.376c0.975,0.561,2.218,0.841,3.729,0.841c2.193,0,4.032-0.792,5.52-2.376
			c1.486-1.583,2.644-3.643,3.473-6.178V97.753l-4.752-0.585v-1.901c1.51-0.585,3.082-1.097,4.716-1.536
			c1.633-0.438,3.229-0.804,4.789-1.097h1.828v33.267l4.825,0.585v1.535c-1.414,0.634-2.84,1.195-4.277,1.682
			c-1.438,0.487-2.938,0.853-4.496,1.097h-1.828l-0.512-8.7h-0.293c-0.244,1.023-0.67,2.06-1.279,3.107
			c-0.609,1.049-1.401,2-2.376,2.852c-0.976,0.854-2.084,1.548-3.327,2.084c-1.242,0.536-2.595,0.804-4.058,0.804
			c-1.95,0-3.668-0.232-5.154-0.695c-1.487-0.462-2.742-1.279-3.766-2.449s-1.804-2.742-2.34-4.716S315.905,118.616,315.905,115.593
			z"/>
		<path class="st0" d="M370.045,130.07h-16.23v-1.828c0.73-0.39,1.486-0.719,2.267-0.987c0.778-0.267,1.632-0.523,2.559-0.768
			V97.753l-4.825-0.585v-1.901c1.413-0.585,2.948-1.097,4.605-1.536c1.657-0.438,3.314-0.804,4.972-1.097h1.828v33.852
			c0.975,0.245,1.852,0.5,2.632,0.768c0.779,0.269,1.511,0.598,2.193,0.987V130.07z M357.25,81.083c0-1.316,0.427-2.364,1.28-3.144
			c0.852-0.779,1.985-1.17,3.399-1.17c1.413,0,2.534,0.391,3.363,1.17c0.828,0.78,1.243,1.828,1.243,3.144s-0.415,2.352-1.243,3.107
			c-0.829,0.756-1.95,1.133-3.363,1.133c-1.414,0-2.548-0.377-3.399-1.133C357.677,83.436,357.25,82.399,357.25,81.083z"/>
		<path class="st0" d="M396.373,122.832c-0.244,1.073-0.658,2.096-1.243,3.071c-0.585,0.976-1.305,1.84-2.156,2.596
			c-0.854,0.756-1.828,1.353-2.925,1.791c-1.097,0.439-2.279,0.658-3.546,0.658c-4.826,0-8.434-1.536-10.821-4.606
			c-2.389-3.071-3.582-7.847-3.582-14.33c0-6.239,1.522-10.991,4.569-14.257c3.046-3.265,7.152-4.898,12.319-4.898
			c1.803,0,3.218,0.085,4.241,0.256c1.023,0.171,2.144,0.475,3.363,0.914V80.206l-5.557-0.585V77.72
			c1.413-0.585,3.058-1.097,4.935-1.536c1.876-0.438,3.667-0.804,5.374-1.097h1.828v50.814l4.825,0.585v1.535
			c-1.414,0.683-2.876,1.268-4.387,1.755c-1.512,0.487-2.998,0.828-4.46,1.023h-1.828l-0.657-7.969H396.373z M387.965,126.414
			c2.388,0,4.289-0.755,5.703-2.267c1.413-1.51,2.388-3.557,2.925-6.142V97.388c-0.83-0.486-1.805-0.828-2.925-1.023
			c-1.122-0.194-2.56-0.292-4.313-0.292c-3.315,0-5.85,1.451-7.604,4.35c-1.755,2.901-2.632,6.763-2.632,11.589
			c0,1.999,0.17,3.864,0.512,5.593c0.341,1.73,0.878,3.253,1.608,4.569c0.731,1.316,1.646,2.353,2.742,3.107
			C385.077,126.037,386.404,126.414,387.965,126.414z"/>
		<path class="st0" d="M439.166,124.952c-0.391,0.83-0.999,1.609-1.827,2.34c-0.83,0.731-1.78,1.365-2.852,1.901
			c-1.073,0.537-2.243,0.962-3.51,1.28c-1.268,0.316-2.559,0.475-3.875,0.475c-2.877,0-5.41-0.451-7.604-1.353
			s-4.021-2.193-5.483-3.875c-1.463-1.682-2.572-3.692-3.327-6.032c-0.756-2.339-1.133-4.972-1.133-7.896
			c0-6.239,1.437-10.991,4.313-14.257c2.875-3.265,6.945-4.899,12.21-4.899c1.705,0,3.387,0.232,5.045,0.695
			c1.656,0.464,3.131,1.231,4.423,2.303c1.291,1.073,2.34,2.498,3.145,4.277c0.804,1.78,1.206,3.985,1.206,6.617
			c0,0.829-0.036,1.67-0.109,2.522c-0.073,0.854-0.208,1.768-0.402,2.742h-22.812c0,2.047,0.256,3.96,0.768,5.739
			c0.512,1.78,1.279,3.327,2.304,4.643c1.023,1.316,2.314,2.353,3.875,3.107c1.559,0.756,3.387,1.133,5.483,1.133
			c1.705,0,3.437-0.243,5.19-0.731c1.755-0.487,3.071-1.121,3.948-1.901L439.166,124.952z M425.786,95.853
			c-2.778,0-4.898,0.939-6.36,2.815c-1.462,1.877-2.34,5.18-2.632,9.907h16.085c0.048-0.438,0.084-0.865,0.109-1.279
			c0.024-0.414,0.036-0.816,0.036-1.207c0-3.119-0.584-5.604-1.754-7.458C430.101,96.779,428.272,95.853,425.786,95.853z"/>
	</g>
</g>
</svg>
