<!-- Generator: Adobe Illustrator 25.2.0, SVG Export Plug-In  -->
<svg version="1.1" xmlns="http://www.w3.org/2000/svg" xmlns:xlink="http://www.w3.org/1999/xlink" x="0px" y="0px"
	 width="1448.945px" height="712.062px" viewBox="0 0 1448.945 712.062"
	 style="overflow:visible;enable-background:new 0 0 1448.945 712.062;" xml:space="preserve">
<style type="text/css">
	.st0{fill:none;}
	.st1{fill:none;stroke:#000000;stroke-miterlimit:10;}
	.st2{clip-path:url(#SVGID_2_);}
	.st3{fill:#F75252;}
	.st4{clip-path:url(#SVGID_4_);}
</style>
<defs>
</defs>
<g>
	<line class="st0" x1="0" y1="672.505" x2="1422.287" y2="672.505"/>
	<g>
		<g>
			<line class="st0" x1="0" y1="672.505" x2="0" y2="655.704"/>
			<line class="st0" x1="4.018" y1="672.505" x2="4.018" y2="655.704"/>
			<line class="st0" x1="8.036" y1="672.505" x2="8.036" y2="655.704"/>
			<line class="st0" x1="12.053" y1="672.505" x2="12.053" y2="655.704"/>
			<line class="st0" x1="16.071" y1="672.505" x2="16.071" y2="655.704"/>
			<line class="st0" x1="20.089" y1="672.505" x2="20.089" y2="655.704"/>
			<line class="st0" x1="24.107" y1="672.505" x2="24.107" y2="655.704"/>
			<line class="st0" x1="28.124" y1="672.505" x2="28.124" y2="655.704"/>
			<line class="st0" x1="32.142" y1="672.505" x2="32.142" y2="655.704"/>
			<line class="st0" x1="36.16" y1="672.505" x2="36.16" y2="655.704"/>
			<line class="st0" x1="40.178" y1="672.505" x2="40.178" y2="655.704"/>
			<line class="st0" x1="44.195" y1="672.505" x2="44.195" y2="655.704"/>
			<line class="st0" x1="48.213" y1="672.505" x2="48.213" y2="655.704"/>
			<line class="st0" x1="52.231" y1="672.505" x2="52.231" y2="655.704"/>
			<line class="st0" x1="56.249" y1="672.505" x2="56.249" y2="655.704"/>
			<line class="st0" x1="60.266" y1="672.505" x2="60.266" y2="655.704"/>
			<line class="st0" x1="64.284" y1="672.505" x2="64.284" y2="655.704"/>
			<line class="st0" x1="68.302" y1="672.505" x2="68.302" y2="655.704"/>
			<line class="st0" x1="72.32" y1="672.505" x2="72.32" y2="655.704"/>
			<line class="st0" x1="76.337" y1="672.505" x2="76.337" y2="655.704"/>
			<line class="st0" x1="80.355" y1="672.505" x2="80.355" y2="655.704"/>
			<line class="st0" x1="84.373" y1="672.505" x2="84.373" y2="655.704"/>
			<line class="st0" x1="88.391" y1="672.505" x2="88.391" y2="655.704"/>
			<line class="st0" x1="92.408" y1="672.505" x2="92.408" y2="655.704"/>
			<line class="st0" x1="96.426" y1="672.505" x2="96.426" y2="655.704"/>
			<line class="st0" x1="100.444" y1="672.505" x2="100.444" y2="655.704"/>
			<line class="st0" x1="104.462" y1="672.505" x2="104.462" y2="655.704"/>
			<line class="st0" x1="108.479" y1="672.505" x2="108.479" y2="655.704"/>
			<line class="st0" x1="112.497" y1="672.505" x2="112.497" y2="655.704"/>
			<line class="st0" x1="116.515" y1="672.505" x2="116.515" y2="655.704"/>
			<line class="st0" x1="120.533" y1="672.505" x2="120.533" y2="655.704"/>
			<line class="st0" x1="124.551" y1="672.505" x2="124.551" y2="655.704"/>
			<line class="st0" x1="128.568" y1="672.505" x2="128.568" y2="655.704"/>
			<line class="st0" x1="132.586" y1="672.505" x2="132.586" y2="655.704"/>
			<line class="st0" x1="136.604" y1="672.505" x2="136.604" y2="655.704"/>
			<line class="st0" x1="140.622" y1="672.505" x2="140.622" y2="655.704"/>
			<line class="st0" x1="144.639" y1="672.505" x2="144.639" y2="655.704"/>
			<line class="st0" x1="148.657" y1="672.505" x2="148.657" y2="655.704"/>
			<line class="st0" x1="152.675" y1="672.505" x2="152.675" y2="655.704"/>
			<line class="st0" x1="156.693" y1="672.505" x2="156.693" y2="655.704"/>
			<line class="st0" x1="160.71" y1="672.505" x2="160.71" y2="655.704"/>
			<line class="st0" x1="164.728" y1="672.505" x2="164.728" y2="655.704"/>
			<line class="st0" x1="168.746" y1="672.505" x2="168.746" y2="655.704"/>
			<line class="st0" x1="172.764" y1="672.505" x2="172.764" y2="655.704"/>
			<line class="st0" x1="176.781" y1="672.505" x2="176.781" y2="655.704"/>
			<line class="st0" x1="180.799" y1="672.505" x2="180.799" y2="655.704"/>
			<line class="st0" x1="184.817" y1="672.505" x2="184.817" y2="655.704"/>
			<line class="st0" x1="188.835" y1="672.505" x2="188.835" y2="655.704"/>
			<line class="st0" x1="192.852" y1="672.505" x2="192.852" y2="655.704"/>
			<line class="st0" x1="196.87" y1="672.505" x2="196.87" y2="655.704"/>
			<line class="st0" x1="200.888" y1="672.505" x2="200.888" y2="655.704"/>
			<line class="st0" x1="204.906" y1="672.505" x2="204.906" y2="655.704"/>
			<line class="st0" x1="208.923" y1="672.505" x2="208.923" y2="655.704"/>
			<line class="st0" x1="212.941" y1="672.505" x2="212.941" y2="655.704"/>
			<line class="st0" x1="216.959" y1="672.505" x2="216.959" y2="655.704"/>
			<line class="st0" x1="220.977" y1="672.505" x2="220.977" y2="655.704"/>
			<line class="st0" x1="224.995" y1="672.505" x2="224.995" y2="655.704"/>
			<line class="st0" x1="229.012" y1="672.505" x2="229.012" y2="655.704"/>
			<line class="st0" x1="233.03" y1="672.505" x2="233.03" y2="655.704"/>
			<line class="st0" x1="237.048" y1="672.505" x2="237.048" y2="655.704"/>
			<line class="st0" x1="241.066" y1="672.505" x2="241.066" y2="655.704"/>
			<line class="st0" x1="245.083" y1="672.505" x2="245.083" y2="655.704"/>
			<line class="st0" x1="249.101" y1="672.505" x2="249.101" y2="655.704"/>
			<line class="st0" x1="253.119" y1="672.505" x2="253.119" y2="655.704"/>
			<line class="st0" x1="257.137" y1="672.505" x2="257.137" y2="655.704"/>
			<line class="st0" x1="261.154" y1="672.505" x2="261.154" y2="655.704"/>
			<line class="st0" x1="265.172" y1="672.505" x2="265.172" y2="655.704"/>
			<line class="st0" x1="269.19" y1="672.505" x2="269.19" y2="655.704"/>
			<line class="st0" x1="273.208" y1="672.505" x2="273.208" y2="655.704"/>
			<line class="st0" x1="277.225" y1="672.505" x2="277.225" y2="655.704"/>
			<line class="st0" x1="281.243" y1="672.505" x2="281.243" y2="655.704"/>
			<line class="st0" x1="285.261" y1="672.505" x2="285.261" y2="655.704"/>
			<line class="st0" x1="289.279" y1="672.505" x2="289.279" y2="655.704"/>
			<line class="st0" x1="293.296" y1="672.505" x2="293.296" y2="655.704"/>
			<line class="st0" x1="297.314" y1="672.505" x2="297.314" y2="655.704"/>
			<line class="st0" x1="301.332" y1="672.505" x2="301.332" y2="655.704"/>
			<line class="st0" x1="305.35" y1="672.505" x2="305.35" y2="655.704"/>
			<line class="st0" x1="309.367" y1="672.505" x2="309.367" y2="655.704"/>
			<line class="st0" x1="313.385" y1="672.505" x2="313.385" y2="655.704"/>
			<line class="st0" x1="317.403" y1="672.505" x2="317.403" y2="655.704"/>
			<line class="st0" x1="321.421" y1="672.505" x2="321.421" y2="655.704"/>
			<line class="st0" x1="325.439" y1="672.505" x2="325.439" y2="655.704"/>
			<line class="st0" x1="329.456" y1="672.505" x2="329.456" y2="655.704"/>
			<line class="st0" x1="333.474" y1="672.505" x2="333.474" y2="655.704"/>
			<line class="st0" x1="337.492" y1="672.505" x2="337.492" y2="655.704"/>
			<line class="st0" x1="341.51" y1="672.505" x2="341.51" y2="655.704"/>
			<line class="st0" x1="345.527" y1="672.505" x2="345.527" y2="655.704"/>
			<line class="st0" x1="349.545" y1="672.505" x2="349.545" y2="655.704"/>
			<line class="st0" x1="353.563" y1="672.505" x2="353.563" y2="655.704"/>
			<line class="st0" x1="357.581" y1="672.505" x2="357.581" y2="655.704"/>
			<line class="st0" x1="361.598" y1="672.505" x2="361.598" y2="655.704"/>
			<line class="st0" x1="365.616" y1="672.505" x2="365.616" y2="655.704"/>
			<line class="st0" x1="369.634" y1="672.505" x2="369.634" y2="655.704"/>
			<line class="st0" x1="373.652" y1="672.505" x2="373.652" y2="655.704"/>
			<line class="st0" x1="377.669" y1="672.505" x2="377.669" y2="655.704"/>
			<line class="st0" x1="381.687" y1="672.505" x2="381.687" y2="655.704"/>
			<line class="st0" x1="385.705" y1="672.505" x2="385.705" y2="655.704"/>
			<line class="st0" x1="389.723" y1="672.505" x2="389.723" y2="655.704"/>
			<line class="st0" x1="393.74" y1="672.505" x2="393.74" y2="655.704"/>
			<line class="st0" x1="397.758" y1="672.505" x2="397.758" y2="655.704"/>
			<line class="st0" x1="401.776" y1="672.505" x2="401.776" y2="655.704"/>
			<line class="st0" x1="405.794" y1="672.505" x2="405.794" y2="655.704"/>
			<line class="st0" x1="409.811" y1="672.505" x2="409.811" y2="655.704"/>
			<line class="st0" x1="413.829" y1="672.505" x2="413.829" y2="655.704"/>
			<line class="st0" x1="417.847" y1="672.505" x2="417.847" y2="655.704"/>
			<line class="st0" x1="421.865" y1="672.505" x2="421.865" y2="655.704"/>
			<line class="st0" x1="425.882" y1="672.505" x2="425.882" y2="655.704"/>
			<line class="st0" x1="429.9" y1="672.505" x2="429.9" y2="655.704"/>
			<line class="st0" x1="433.918" y1="672.505" x2="433.918" y2="655.704"/>
			<line class="st0" x1="437.936" y1="672.505" x2="437.936" y2="655.704"/>
			<line class="st0" x1="441.954" y1="672.505" x2="441.954" y2="655.704"/>
			<line class="st0" x1="445.971" y1="672.505" x2="445.971" y2="655.704"/>
			<line class="st0" x1="449.989" y1="672.505" x2="449.989" y2="655.704"/>
			<line class="st0" x1="454.007" y1="672.505" x2="454.007" y2="655.704"/>
			<line class="st0" x1="458.025" y1="672.505" x2="458.025" y2="655.704"/>
			<line class="st0" x1="462.042" y1="672.505" x2="462.042" y2="655.704"/>
			<line class="st0" x1="466.06" y1="672.505" x2="466.06" y2="655.704"/>
			<line class="st0" x1="470.078" y1="672.505" x2="470.078" y2="655.704"/>
			<line class="st0" x1="474.096" y1="672.505" x2="474.096" y2="655.704"/>
			<line class="st0" x1="478.113" y1="672.505" x2="478.113" y2="655.704"/>
			<line class="st0" x1="482.131" y1="672.505" x2="482.131" y2="655.704"/>
			<line class="st0" x1="486.149" y1="672.505" x2="486.149" y2="655.704"/>
			<line class="st0" x1="490.167" y1="672.505" x2="490.167" y2="655.704"/>
			<line class="st0" x1="494.184" y1="672.505" x2="494.184" y2="655.704"/>
			<line class="st0" x1="498.202" y1="672.505" x2="498.202" y2="655.704"/>
			<line class="st0" x1="502.22" y1="672.505" x2="502.22" y2="655.704"/>
			<line class="st0" x1="506.238" y1="672.505" x2="506.238" y2="655.704"/>
			<line class="st0" x1="510.255" y1="672.505" x2="510.255" y2="655.704"/>
			<line class="st0" x1="514.273" y1="672.505" x2="514.273" y2="655.704"/>
			<line class="st0" x1="518.291" y1="672.505" x2="518.291" y2="655.704"/>
			<line class="st0" x1="522.309" y1="672.505" x2="522.309" y2="655.704"/>
			<line class="st0" x1="526.326" y1="672.505" x2="526.326" y2="655.704"/>
			<line class="st0" x1="530.344" y1="672.505" x2="530.344" y2="655.704"/>
			<line class="st0" x1="534.362" y1="672.505" x2="534.362" y2="655.704"/>
			<line class="st0" x1="538.38" y1="672.505" x2="538.38" y2="655.704"/>
			<line class="st0" x1="542.398" y1="672.505" x2="542.398" y2="655.704"/>
			<line class="st0" x1="546.415" y1="672.505" x2="546.415" y2="655.704"/>
			<line class="st0" x1="550.433" y1="672.505" x2="550.433" y2="655.704"/>
			<line class="st0" x1="554.451" y1="672.505" x2="554.451" y2="655.704"/>
			<line class="st0" x1="558.469" y1="672.505" x2="558.469" y2="655.704"/>
			<line class="st0" x1="562.486" y1="672.505" x2="562.486" y2="655.704"/>
			<line class="st0" x1="566.504" y1="672.505" x2="566.504" y2="655.704"/>
			<line class="st0" x1="570.522" y1="672.505" x2="570.522" y2="655.704"/>
			<line class="st0" x1="574.54" y1="672.505" x2="574.54" y2="655.704"/>
			<line class="st0" x1="578.557" y1="672.505" x2="578.557" y2="655.704"/>
			<line class="st0" x1="582.575" y1="672.505" x2="582.575" y2="655.704"/>
			<line class="st0" x1="586.593" y1="672.505" x2="586.593" y2="655.704"/>
			<line class="st0" x1="590.611" y1="672.505" x2="590.611" y2="655.704"/>
			<line class="st0" x1="594.628" y1="672.505" x2="594.628" y2="655.704"/>
			<line class="st0" x1="598.646" y1="672.505" x2="598.646" y2="655.704"/>
			<line class="st0" x1="602.664" y1="672.505" x2="602.664" y2="655.704"/>
			<line class="st0" x1="606.682" y1="672.505" x2="606.682" y2="655.704"/>
			<line class="st0" x1="610.699" y1="672.505" x2="610.699" y2="655.704"/>
			<line class="st0" x1="614.717" y1="672.505" x2="614.717" y2="655.704"/>
			<line class="st0" x1="618.735" y1="672.505" x2="618.735" y2="655.704"/>
			<line class="st0" x1="622.753" y1="672.505" x2="622.753" y2="655.704"/>
			<line class="st0" x1="626.77" y1="672.505" x2="626.77" y2="655.704"/>
			<line class="st0" x1="630.788" y1="672.505" x2="630.788" y2="655.704"/>
			<line class="st0" x1="634.806" y1="672.505" x2="634.806" y2="655.704"/>
			<line class="st0" x1="638.824" y1="672.505" x2="638.824" y2="655.704"/>
			<line class="st0" x1="642.841" y1="672.505" x2="642.841" y2="655.704"/>
			<line class="st0" x1="646.859" y1="672.505" x2="646.859" y2="655.704"/>
			<line class="st0" x1="650.877" y1="672.505" x2="650.877" y2="655.704"/>
			<line class="st0" x1="654.895" y1="672.505" x2="654.895" y2="655.704"/>
			<line class="st0" x1="658.913" y1="672.505" x2="658.913" y2="655.704"/>
			<line class="st0" x1="662.93" y1="672.505" x2="662.93" y2="655.704"/>
			<line class="st0" x1="666.948" y1="672.505" x2="666.948" y2="655.704"/>
			<line class="st0" x1="670.966" y1="672.505" x2="670.966" y2="655.704"/>
			<line class="st0" x1="674.984" y1="672.505" x2="674.984" y2="655.704"/>
			<line class="st0" x1="679.001" y1="672.505" x2="679.001" y2="655.704"/>
			<line class="st0" x1="683.019" y1="672.505" x2="683.019" y2="655.704"/>
			<line class="st0" x1="687.037" y1="672.505" x2="687.037" y2="655.704"/>
			<line class="st0" x1="691.055" y1="672.505" x2="691.055" y2="655.704"/>
			<line class="st0" x1="695.072" y1="672.505" x2="695.072" y2="655.704"/>
			<line class="st0" x1="699.09" y1="672.505" x2="699.09" y2="655.704"/>
			<line class="st0" x1="703.108" y1="672.505" x2="703.108" y2="655.704"/>
			<line class="st0" x1="707.126" y1="672.505" x2="707.126" y2="655.704"/>
			<line class="st0" x1="711.143" y1="672.505" x2="711.143" y2="655.704"/>
			<line class="st0" x1="715.161" y1="672.505" x2="715.161" y2="655.704"/>
			<line class="st0" x1="719.179" y1="672.505" x2="719.179" y2="655.704"/>
			<line class="st0" x1="723.197" y1="672.505" x2="723.197" y2="655.704"/>
			<line class="st0" x1="727.214" y1="672.505" x2="727.214" y2="655.704"/>
			<line class="st0" x1="731.232" y1="672.505" x2="731.232" y2="655.704"/>
			<line class="st0" x1="735.25" y1="672.505" x2="735.25" y2="655.704"/>
			<line class="st0" x1="739.268" y1="672.505" x2="739.268" y2="655.704"/>
			<line class="st0" x1="743.285" y1="672.505" x2="743.285" y2="655.704"/>
			<line class="st0" x1="747.303" y1="672.505" x2="747.303" y2="655.704"/>
			<line class="st0" x1="751.321" y1="672.505" x2="751.321" y2="655.704"/>
			<line class="st0" x1="755.339" y1="672.505" x2="755.339" y2="655.704"/>
			<line class="st0" x1="759.357" y1="672.505" x2="759.357" y2="655.704"/>
			<line class="st0" x1="763.374" y1="672.505" x2="763.374" y2="655.704"/>
			<line class="st0" x1="767.392" y1="672.505" x2="767.392" y2="655.704"/>
			<line class="st0" x1="771.41" y1="672.505" x2="771.41" y2="655.704"/>
			<line class="st0" x1="775.428" y1="672.505" x2="775.428" y2="655.704"/>
			<line class="st0" x1="779.445" y1="672.505" x2="779.445" y2="655.704"/>
			<line class="st0" x1="783.463" y1="672.505" x2="783.463" y2="655.704"/>
			<line class="st0" x1="787.481" y1="672.505" x2="787.481" y2="655.704"/>
			<line class="st0" x1="791.499" y1="672.505" x2="791.499" y2="655.704"/>
			<line class="st0" x1="795.516" y1="672.505" x2="795.516" y2="655.704"/>
			<line class="st0" x1="799.534" y1="672.505" x2="799.534" y2="655.704"/>
			<line class="st0" x1="803.552" y1="672.505" x2="803.552" y2="655.704"/>
			<line class="st0" x1="807.57" y1="672.505" x2="807.57" y2="655.704"/>
			<line class="st0" x1="811.587" y1="672.505" x2="811.587" y2="655.704"/>
			<line class="st0" x1="815.605" y1="672.505" x2="815.605" y2="655.704"/>
			<line class="st0" x1="819.623" y1="672.505" x2="819.623" y2="655.704"/>
			<line class="st0" x1="823.641" y1="672.505" x2="823.641" y2="655.704"/>
			<line class="st0" x1="827.658" y1="672.505" x2="827.658" y2="655.704"/>
			<line class="st0" x1="831.676" y1="672.505" x2="831.676" y2="655.704"/>
			<line class="st0" x1="835.694" y1="672.505" x2="835.694" y2="655.704"/>
			<line class="st0" x1="839.712" y1="672.505" x2="839.712" y2="655.704"/>
			<line class="st0" x1="843.729" y1="672.505" x2="843.729" y2="655.704"/>
			<line class="st0" x1="847.747" y1="672.505" x2="847.747" y2="655.704"/>
			<line class="st0" x1="851.765" y1="672.505" x2="851.765" y2="655.704"/>
			<line class="st0" x1="855.783" y1="672.505" x2="855.783" y2="655.704"/>
			<line class="st0" x1="859.8" y1="672.505" x2="859.8" y2="655.704"/>
			<line class="st0" x1="863.818" y1="672.505" x2="863.818" y2="655.704"/>
			<line class="st0" x1="867.836" y1="672.505" x2="867.836" y2="655.704"/>
			<line class="st0" x1="871.854" y1="672.505" x2="871.854" y2="655.704"/>
			<line class="st0" x1="875.872" y1="672.505" x2="875.872" y2="655.704"/>
			<line class="st0" x1="879.889" y1="672.505" x2="879.889" y2="655.704"/>
			<line class="st0" x1="883.907" y1="672.505" x2="883.907" y2="655.704"/>
			<line class="st0" x1="887.925" y1="672.505" x2="887.925" y2="655.704"/>
			<line class="st0" x1="891.943" y1="672.505" x2="891.943" y2="655.704"/>
			<line class="st0" x1="895.96" y1="672.505" x2="895.96" y2="655.704"/>
			<line class="st0" x1="899.978" y1="672.505" x2="899.978" y2="655.704"/>
			<line class="st0" x1="903.996" y1="672.505" x2="903.996" y2="655.704"/>
			<line class="st0" x1="908.014" y1="672.505" x2="908.014" y2="655.704"/>
			<line class="st0" x1="912.031" y1="672.505" x2="912.031" y2="655.704"/>
			<line class="st0" x1="916.049" y1="672.505" x2="916.049" y2="655.704"/>
			<line class="st0" x1="920.067" y1="672.505" x2="920.067" y2="655.704"/>
			<line class="st0" x1="924.085" y1="672.505" x2="924.085" y2="655.704"/>
			<line class="st0" x1="928.102" y1="672.505" x2="928.102" y2="655.704"/>
			<line class="st0" x1="932.12" y1="672.505" x2="932.12" y2="655.704"/>
			<line class="st0" x1="936.138" y1="672.505" x2="936.138" y2="655.704"/>
			<line class="st0" x1="940.156" y1="672.505" x2="940.156" y2="655.704"/>
			<line class="st0" x1="944.173" y1="672.505" x2="944.173" y2="655.704"/>
			<line class="st0" x1="948.191" y1="672.505" x2="948.191" y2="655.704"/>
			<line class="st0" x1="952.209" y1="672.505" x2="952.209" y2="655.704"/>
			<line class="st0" x1="956.227" y1="672.505" x2="956.227" y2="655.704"/>
			<line class="st0" x1="960.244" y1="672.505" x2="960.244" y2="655.704"/>
			<line class="st0" x1="964.262" y1="672.505" x2="964.262" y2="655.704"/>
			<line class="st0" x1="968.28" y1="672.505" x2="968.28" y2="655.704"/>
			<line class="st0" x1="972.298" y1="672.505" x2="972.298" y2="655.704"/>
			<line class="st0" x1="976.315" y1="672.505" x2="976.315" y2="655.704"/>
			<line class="st0" x1="980.333" y1="672.505" x2="980.333" y2="655.704"/>
			<line class="st0" x1="984.351" y1="672.505" x2="984.351" y2="655.704"/>
			<line class="st0" x1="988.369" y1="672.505" x2="988.369" y2="655.704"/>
			<line class="st0" x1="992.387" y1="672.505" x2="992.387" y2="655.704"/>
			<line class="st0" x1="996.404" y1="672.505" x2="996.404" y2="655.704"/>
			<line class="st0" x1="1000.422" y1="672.505" x2="1000.422" y2="655.704"/>
			<line class="st0" x1="1004.44" y1="672.505" x2="1004.44" y2="655.704"/>
			<line class="st0" x1="1008.458" y1="672.505" x2="1008.458" y2="655.704"/>
			<line class="st0" x1="1012.475" y1="672.505" x2="1012.475" y2="655.704"/>
			<line class="st0" x1="1016.493" y1="672.505" x2="1016.493" y2="655.704"/>
			<line class="st0" x1="1020.511" y1="672.505" x2="1020.511" y2="655.704"/>
			<line class="st0" x1="1024.529" y1="672.505" x2="1024.529" y2="655.704"/>
			<line class="st0" x1="1028.546" y1="672.505" x2="1028.546" y2="655.704"/>
			<line class="st0" x1="1032.564" y1="672.505" x2="1032.564" y2="655.704"/>
			<line class="st0" x1="1036.582" y1="672.505" x2="1036.582" y2="655.704"/>
			<line class="st0" x1="1040.6" y1="672.505" x2="1040.6" y2="655.704"/>
			<line class="st0" x1="1044.617" y1="672.505" x2="1044.617" y2="655.704"/>
			<line class="st0" x1="1048.635" y1="672.505" x2="1048.635" y2="655.704"/>
			<line class="st0" x1="1052.653" y1="672.505" x2="1052.653" y2="655.704"/>
			<line class="st0" x1="1056.671" y1="672.505" x2="1056.671" y2="655.704"/>
			<line class="st0" x1="1060.688" y1="672.505" x2="1060.688" y2="655.704"/>
			<line class="st0" x1="1064.706" y1="672.505" x2="1064.706" y2="655.704"/>
			<line class="st0" x1="1068.724" y1="672.505" x2="1068.724" y2="655.704"/>
			<line class="st0" x1="1072.742" y1="672.505" x2="1072.742" y2="655.704"/>
			<line class="st0" x1="1076.76" y1="672.505" x2="1076.76" y2="655.704"/>
			<line class="st0" x1="1080.777" y1="672.505" x2="1080.777" y2="655.704"/>
			<line class="st0" x1="1084.795" y1="672.505" x2="1084.795" y2="655.704"/>
			<line class="st0" x1="1088.813" y1="672.505" x2="1088.813" y2="655.704"/>
			<line class="st0" x1="1092.831" y1="672.505" x2="1092.831" y2="655.704"/>
			<line class="st0" x1="1096.848" y1="672.505" x2="1096.848" y2="655.704"/>
			<line class="st0" x1="1100.866" y1="672.505" x2="1100.866" y2="655.704"/>
			<line class="st0" x1="1104.884" y1="672.505" x2="1104.884" y2="655.704"/>
			<line class="st0" x1="1108.902" y1="672.505" x2="1108.902" y2="655.704"/>
			<line class="st0" x1="1112.919" y1="672.505" x2="1112.919" y2="655.704"/>
			<line class="st0" x1="1116.937" y1="672.505" x2="1116.937" y2="655.704"/>
			<line class="st0" x1="1120.955" y1="672.505" x2="1120.955" y2="655.704"/>
			<line class="st0" x1="1124.973" y1="672.505" x2="1124.973" y2="655.704"/>
			<line class="st0" x1="1128.99" y1="672.505" x2="1128.99" y2="655.704"/>
			<line class="st0" x1="1133.008" y1="672.505" x2="1133.008" y2="655.704"/>
			<line class="st0" x1="1137.026" y1="672.505" x2="1137.026" y2="655.704"/>
			<line class="st0" x1="1141.044" y1="672.505" x2="1141.044" y2="655.704"/>
			<line class="st0" x1="1145.061" y1="672.505" x2="1145.061" y2="655.704"/>
			<line class="st0" x1="1149.079" y1="672.505" x2="1149.079" y2="655.704"/>
			<line class="st0" x1="1153.097" y1="672.505" x2="1153.097" y2="655.704"/>
			<line class="st0" x1="1157.115" y1="672.505" x2="1157.115" y2="655.704"/>
			<line class="st0" x1="1161.132" y1="672.505" x2="1161.132" y2="655.704"/>
			<line class="st0" x1="1165.15" y1="672.505" x2="1165.15" y2="655.704"/>
			<line class="st0" x1="1169.168" y1="672.505" x2="1169.168" y2="655.704"/>
			<line class="st0" x1="1173.186" y1="672.505" x2="1173.186" y2="655.704"/>
			<line class="st0" x1="1177.203" y1="672.505" x2="1177.203" y2="655.704"/>
			<line class="st0" x1="1181.221" y1="672.505" x2="1181.221" y2="655.704"/>
			<line class="st0" x1="1185.239" y1="672.505" x2="1185.239" y2="655.704"/>
			<line class="st0" x1="1189.257" y1="672.505" x2="1189.257" y2="655.704"/>
			<line class="st0" x1="1193.275" y1="672.505" x2="1193.275" y2="655.704"/>
			<line class="st0" x1="1197.292" y1="672.505" x2="1197.292" y2="655.704"/>
			<line class="st0" x1="1201.31" y1="672.505" x2="1201.31" y2="655.704"/>
			<line class="st0" x1="1205.328" y1="672.505" x2="1205.328" y2="655.704"/>
			<line class="st0" x1="1209.346" y1="672.505" x2="1209.346" y2="655.704"/>
			<line class="st0" x1="1213.363" y1="672.505" x2="1213.363" y2="655.704"/>
			<line class="st0" x1="1217.381" y1="672.505" x2="1217.381" y2="655.704"/>
			<line class="st0" x1="1221.399" y1="672.505" x2="1221.399" y2="655.704"/>
			<line class="st0" x1="1225.417" y1="672.505" x2="1225.417" y2="655.704"/>
			<line class="st0" x1="1229.434" y1="672.505" x2="1229.434" y2="655.704"/>
			<line class="st0" x1="1233.452" y1="672.505" x2="1233.452" y2="655.704"/>
			<line class="st0" x1="1237.47" y1="672.505" x2="1237.47" y2="655.704"/>
			<line class="st0" x1="1241.488" y1="672.505" x2="1241.488" y2="655.704"/>
			<line class="st0" x1="1245.505" y1="672.505" x2="1245.505" y2="655.704"/>
			<line class="st0" x1="1249.523" y1="672.505" x2="1249.523" y2="655.704"/>
			<line class="st0" x1="1253.541" y1="672.505" x2="1253.541" y2="655.704"/>
			<line class="st0" x1="1257.559" y1="672.505" x2="1257.559" y2="655.704"/>
			<line class="st0" x1="1261.576" y1="672.505" x2="1261.576" y2="655.704"/>
			<line class="st0" x1="1265.594" y1="672.505" x2="1265.594" y2="655.704"/>
			<line class="st0" x1="1269.612" y1="672.505" x2="1269.612" y2="655.704"/>
			<line class="st0" x1="1273.63" y1="672.505" x2="1273.63" y2="655.704"/>
			<line class="st0" x1="1277.647" y1="672.505" x2="1277.647" y2="655.704"/>
			<line class="st0" x1="1281.665" y1="672.505" x2="1281.665" y2="655.704"/>
			<line class="st0" x1="1285.683" y1="672.505" x2="1285.683" y2="655.704"/>
			<line class="st0" x1="1289.701" y1="672.505" x2="1289.701" y2="655.704"/>
			<line class="st0" x1="1293.719" y1="672.505" x2="1293.719" y2="655.704"/>
			<line class="st0" x1="1297.736" y1="672.505" x2="1297.736" y2="655.704"/>
			<line class="st0" x1="1301.754" y1="672.505" x2="1301.754" y2="655.704"/>
			<line class="st0" x1="1305.772" y1="672.505" x2="1305.772" y2="655.704"/>
			<line class="st0" x1="1309.79" y1="672.505" x2="1309.79" y2="655.704"/>
			<line class="st0" x1="1313.807" y1="672.505" x2="1313.807" y2="655.704"/>
			<line class="st0" x1="1317.825" y1="672.505" x2="1317.825" y2="655.704"/>
			<line class="st0" x1="1321.843" y1="672.505" x2="1321.843" y2="655.704"/>
			<line class="st0" x1="1325.861" y1="672.505" x2="1325.861" y2="655.704"/>
			<line class="st0" x1="1329.878" y1="672.505" x2="1329.878" y2="655.704"/>
			<line class="st0" x1="1333.896" y1="672.505" x2="1333.896" y2="655.704"/>
			<line class="st0" x1="1337.914" y1="672.505" x2="1337.914" y2="655.704"/>
			<line class="st0" x1="1341.932" y1="672.505" x2="1341.932" y2="655.704"/>
			<line class="st0" x1="1345.949" y1="672.505" x2="1345.949" y2="655.704"/>
			<line class="st0" x1="1349.967" y1="672.505" x2="1349.967" y2="655.704"/>
			<line class="st0" x1="1353.985" y1="672.505" x2="1353.985" y2="655.704"/>
			<line class="st0" x1="1358.003" y1="672.505" x2="1358.003" y2="655.704"/>
			<line class="st0" x1="1362.02" y1="672.505" x2="1362.02" y2="655.704"/>
			<line class="st0" x1="1366.038" y1="672.505" x2="1366.038" y2="655.704"/>
			<line class="st0" x1="1370.056" y1="672.505" x2="1370.056" y2="655.704"/>
			<line class="st0" x1="1374.074" y1="672.505" x2="1374.074" y2="655.704"/>
			<line class="st0" x1="1378.091" y1="672.505" x2="1378.091" y2="655.704"/>
			<line class="st0" x1="1382.109" y1="672.505" x2="1382.109" y2="655.704"/>
			<line class="st0" x1="1386.127" y1="672.505" x2="1386.127" y2="655.704"/>
			<line class="st0" x1="1390.145" y1="672.505" x2="1390.145" y2="655.704"/>
			<line class="st0" x1="1394.162" y1="672.505" x2="1394.162" y2="655.704"/>
			<line class="st0" x1="1398.18" y1="672.505" x2="1398.18" y2="655.704"/>
			<line class="st0" x1="1402.198" y1="672.505" x2="1402.198" y2="655.704"/>
			<line class="st0" x1="1406.216" y1="672.505" x2="1406.216" y2="655.704"/>
			<line class="st0" x1="1410.234" y1="672.505" x2="1410.234" y2="655.704"/>
			<line class="st0" x1="1414.251" y1="672.505" x2="1414.251" y2="655.704"/>
			<line class="st0" x1="1418.269" y1="672.505" x2="1418.269" y2="655.704"/>
			<line class="st0" x1="1422.287" y1="672.505" x2="1422.287" y2="655.704"/>
		</g>
		<g>
		</g>
	</g>
</g>
<g>
	<g>
		<line class="st1" x1="1438.291" y1="672.505" x2="1446.889" y2="672.505"/>
		<line class="st1" x1="1438.291" y1="560.504" x2="1446.889" y2="560.504"/>
		<line class="st1" x1="1438.291" y1="448.503" x2="1446.889" y2="448.503"/>
		<line class="st1" x1="1438.291" y1="336.502" x2="1446.889" y2="336.502"/>
		<line class="st1" x1="1438.291" y1="224.502" x2="1446.889" y2="224.502"/>
		<line class="st1" x1="1438.291" y1="112.501" x2="1446.889" y2="112.501"/>
		<line class="st1" x1="1438.291" y1="0.5" x2="1446.889" y2="0.5"/>
	</g>
	<g>
	</g>
</g>
<g>
	<defs>
		<rect id="SVGID_1_" x="1036.582" y="0.5" width="124.553" height="711.562"/>
	</defs>
	<clipPath id="SVGID_2_">
		<use xlink:href="#SVGID_1_"  style="overflow:visible;"/>
	</clipPath>
	<g class="st2">
		<g>
			<g>
				<rect x="0.562" y="672.505" class="st3" width="2.893" height="0"/>
				<rect x="4.58" y="672.505" class="st3" width="2.893" height="0"/>
				<rect x="8.598" y="672.505" class="st3" width="2.893" height="0"/>
				<rect x="12.616" y="672.505" class="st3" width="2.893" height="0"/>
				<rect x="16.634" y="672.505" class="st3" width="2.893" height="0"/>
				<rect x="20.651" y="672.505" class="st3" width="2.893" height="0"/>
				<rect x="24.669" y="672.505" class="st3" width="2.893" height="0"/>
				<rect x="28.687" y="672.505" class="st3" width="2.893" height="0"/>
				<rect x="32.705" y="672.505" class="st3" width="2.893" height="0"/>
				<rect x="36.722" y="672.505" class="st3" width="2.893" height="0"/>
				<rect x="40.74" y="672.505" class="st3" width="2.893" height="0"/>
				<rect x="44.758" y="672.505" class="st3" width="2.893" height="0"/>
				<rect x="48.776" y="616.504" class="st3" width="2.893" height="56"/>
				<rect x="52.793" y="672.505" class="st3" width="2.893" height="0"/>
				<rect x="56.811" y="672.505" class="st3" width="2.893" height="0"/>
				<rect x="60.829" y="672.505" class="st3" width="2.893" height="0"/>
				<rect x="64.847" y="672.505" class="st3" width="2.893" height="0"/>
				<rect x="68.864" y="672.505" class="st3" width="2.893" height="0"/>
				<rect x="72.882" y="672.505" class="st3" width="2.893" height="0"/>
				<rect x="76.9" y="672.505" class="st3" width="2.893" height="0"/>
				<rect x="80.918" y="672.505" class="st3" width="2.893" height="0"/>
				<rect x="84.935" y="672.505" class="st3" width="2.893" height="0"/>
				<rect x="88.953" y="616.504" class="st3" width="2.893" height="56"/>
				<rect x="92.971" y="616.504" class="st3" width="2.893" height="56"/>
				<rect x="96.989" y="672.505" class="st3" width="2.893" height="0"/>
				<rect x="101.006" y="672.505" class="st3" width="2.893" height="0"/>
				<rect x="105.024" y="672.505" class="st3" width="2.893" height="0"/>
				<rect x="109.042" y="672.505" class="st3" width="2.893" height="0"/>
				<rect x="113.06" y="672.505" class="st3" width="2.893" height="0"/>
				<rect x="117.078" y="672.505" class="st3" width="2.893" height="0"/>
				<rect x="121.095" y="672.505" class="st3" width="2.893" height="0"/>
				<rect x="125.113" y="672.505" class="st3" width="2.893" height="0"/>
				<rect x="129.131" y="672.505" class="st3" width="2.893" height="0"/>
				<rect x="133.149" y="672.505" class="st3" width="2.893" height="0"/>
				<rect x="137.166" y="672.505" class="st3" width="2.893" height="0"/>
				<rect x="141.184" y="616.504" class="st3" width="2.893" height="56"/>
				<rect x="145.202" y="672.505" class="st3" width="2.893" height="0"/>
				<rect x="149.22" y="672.505" class="st3" width="2.893" height="0"/>
				<rect x="153.237" y="672.505" class="st3" width="2.893" height="0"/>
				<rect x="157.255" y="672.505" class="st3" width="2.893" height="0"/>
				<rect x="161.273" y="672.505" class="st3" width="2.893" height="0"/>
				<rect x="165.291" y="672.505" class="st3" width="2.893" height="0"/>
				<rect x="169.308" y="672.505" class="st3" width="2.893" height="0"/>
				<rect x="173.326" y="672.505" class="st3" width="2.893" height="0"/>
				<rect x="177.344" y="672.505" class="st3" width="2.893" height="0"/>
				<rect x="181.362" y="672.505" class="st3" width="2.893" height="0"/>
				<rect x="185.379" y="672.505" class="st3" width="2.893" height="0"/>
				<rect x="189.397" y="672.505" class="st3" width="2.893" height="0"/>
				<rect x="193.415" y="672.505" class="st3" width="2.893" height="0"/>
				<rect x="197.433" y="672.505" class="st3" width="2.893" height="0"/>
				<rect x="201.45" y="672.505" class="st3" width="2.893" height="0"/>
				<rect x="205.468" y="672.505" class="st3" width="2.893" height="0"/>
				<rect x="209.486" y="672.505" class="st3" width="2.893" height="0"/>
				<rect x="213.504" y="672.505" class="st3" width="2.893" height="0"/>
				<rect x="217.521" y="672.505" class="st3" width="2.893" height="0"/>
				<rect x="221.539" y="672.505" class="st3" width="2.893" height="0"/>
				<rect x="225.557" y="672.505" class="st3" width="2.893" height="0"/>
				<rect x="229.575" y="672.505" class="st3" width="2.893" height="0"/>
				<rect x="233.593" y="672.505" class="st3" width="2.893" height="0"/>
				<rect x="237.61" y="672.505" class="st3" width="2.893" height="0"/>
				<rect x="241.628" y="672.505" class="st3" width="2.893" height="0"/>
				<rect x="245.646" y="672.505" class="st3" width="2.893" height="0"/>
				<rect x="249.664" y="672.505" class="st3" width="2.893" height="0"/>
				<rect x="253.681" y="672.505" class="st3" width="2.893" height="0"/>
				<rect x="257.699" y="672.505" class="st3" width="2.893" height="0"/>
				<rect x="261.717" y="672.505" class="st3" width="2.893" height="0"/>
				<rect x="265.735" y="672.505" class="st3" width="2.893" height="0"/>
				<rect x="269.752" y="672.505" class="st3" width="2.893" height="0"/>
				<rect x="273.77" y="672.505" class="st3" width="2.893" height="0"/>
				<rect x="277.788" y="672.505" class="st3" width="2.893" height="0"/>
				<rect x="281.806" y="672.505" class="st3" width="2.893" height="0"/>
				<rect x="285.823" y="672.505" class="st3" width="2.893" height="0"/>
				<rect x="289.841" y="672.505" class="st3" width="2.893" height="0"/>
				<rect x="293.859" y="672.505" class="st3" width="2.893" height="0"/>
				<rect x="297.877" y="672.505" class="st3" width="2.893" height="0"/>
				<rect x="301.894" y="672.505" class="st3" width="2.893" height="0"/>
				<rect x="305.912" y="672.505" class="st3" width="2.893" height="0"/>
				<rect x="309.93" y="672.505" class="st3" width="2.893" height="0"/>
				<rect x="313.948" y="672.505" class="st3" width="2.893" height="0"/>
				<rect x="317.965" y="672.505" class="st3" width="2.893" height="0"/>
				<rect x="321.983" y="672.505" class="st3" width="2.893" height="0"/>
				<rect x="326.001" y="672.505" class="st3" width="2.893" height="0"/>
				<rect x="330.019" y="672.505" class="st3" width="2.893" height="0"/>
				<rect x="334.036" y="672.505" class="st3" width="2.893" height="0"/>
				<rect x="338.054" y="672.505" class="st3" width="2.893" height="0"/>
				<rect x="342.072" y="672.505" class="st3" width="2.893" height="0"/>
				<rect x="346.09" y="672.505" class="st3" width="2.893" height="0"/>
				<rect x="350.108" y="672.505" class="st3" width="2.893" height="0"/>
				<rect x="354.125" y="672.505" class="st3" width="2.893" height="0"/>
				<rect x="358.143" y="672.505" class="st3" width="2.893" height="0"/>
				<rect x="362.161" y="672.505" class="st3" width="2.893" height="0"/>
				<rect x="366.179" y="672.505" class="st3" width="2.893" height="0"/>
				<rect x="370.196" y="672.505" class="st3" width="2.893" height="0"/>
				<rect x="374.214" y="672.505" class="st3" width="2.893" height="0"/>
				<rect x="378.232" y="672.505" class="st3" width="2.893" height="0"/>
				<rect x="382.25" y="672.505" class="st3" width="2.893" height="0"/>
				<rect x="386.267" y="672.505" class="st3" width="2.893" height="0"/>
				<rect x="390.285" y="672.505" class="st3" width="2.893" height="0"/>
				<rect x="394.303" y="672.505" class="st3" width="2.893" height="0"/>
				<rect x="398.321" y="672.505" class="st3" width="2.893" height="0"/>
				<rect x="402.338" y="672.505" class="st3" width="2.893" height="0"/>
				<rect x="406.356" y="672.505" class="st3" width="2.893" height="0"/>
				<rect x="410.374" y="672.505" class="st3" width="2.893" height="0"/>
				<rect x="414.392" y="672.505" class="st3" width="2.893" height="0"/>
				<rect x="418.409" y="672.505" class="st3" width="2.893" height="0"/>
				<rect x="422.427" y="672.505" class="st3" width="2.893" height="0"/>
				<rect x="426.445" y="672.505" class="st3" width="2.893" height="0"/>
				<rect x="430.463" y="672.505" class="st3" width="2.893" height="0"/>
				<rect x="434.48" y="672.505" class="st3" width="2.893" height="0"/>
				<rect x="438.498" y="672.505" class="st3" width="2.893" height="0"/>
				<rect x="442.516" y="672.505" class="st3" width="2.893" height="0"/>
				<rect x="446.534" y="672.505" class="st3" width="2.893" height="0"/>
				<rect x="450.552" y="672.505" class="st3" width="2.893" height="0"/>
				<rect x="454.569" y="672.505" class="st3" width="2.893" height="0"/>
				<rect x="458.587" y="672.505" class="st3" width="2.893" height="0"/>
				<rect x="462.605" y="672.505" class="st3" width="2.893" height="0"/>
				<rect x="466.623" y="672.505" class="st3" width="2.893" height="0"/>
				<rect x="470.64" y="672.505" class="st3" width="2.893" height="0"/>
				<rect x="474.658" y="672.505" class="st3" width="2.893" height="0"/>
				<rect x="478.676" y="672.505" class="st3" width="2.893" height="0"/>
				<rect x="482.694" y="672.505" class="st3" width="2.893" height="0"/>
				<rect x="486.711" y="672.505" class="st3" width="2.893" height="0"/>
				<rect x="490.729" y="672.505" class="st3" width="2.893" height="0"/>
				<rect x="494.747" y="672.505" class="st3" width="2.893" height="0"/>
				<rect x="498.765" y="672.505" class="st3" width="2.893" height="0"/>
				<rect x="502.782" y="672.505" class="st3" width="2.893" height="0"/>
				<rect x="506.8" y="672.505" class="st3" width="2.893" height="0"/>
				<rect x="510.818" y="672.505" class="st3" width="2.893" height="0"/>
				<rect x="514.836" y="616.504" class="st3" width="2.893" height="56"/>
				<rect x="518.853" y="672.505" class="st3" width="2.893" height="0"/>
				<rect x="522.871" y="672.505" class="st3" width="2.893" height="0"/>
				<rect x="526.889" y="672.505" class="st3" width="2.893" height="0"/>
				<rect x="530.907" y="672.505" class="st3" width="2.893" height="0"/>
				<rect x="534.924" y="672.505" class="st3" width="2.893" height="0"/>
				<rect x="538.942" y="672.505" class="st3" width="2.893" height="0"/>
				<rect x="542.96" y="672.505" class="st3" width="2.893" height="0"/>
				<rect x="546.978" y="672.505" class="st3" width="2.893" height="0"/>
				<rect x="550.995" y="672.505" class="st3" width="2.893" height="0"/>
				<rect x="555.013" y="672.505" class="st3" width="2.893" height="0"/>
				<rect x="559.031" y="672.505" class="st3" width="2.893" height="0"/>
				<rect x="563.049" y="672.505" class="st3" width="2.893" height="0"/>
				<rect x="567.067" y="672.505" class="st3" width="2.893" height="0"/>
				<rect x="571.084" y="672.505" class="st3" width="2.893" height="0"/>
				<rect x="575.102" y="616.504" class="st3" width="2.893" height="56"/>
				<rect x="579.12" y="672.505" class="st3" width="2.893" height="0"/>
				<rect x="583.138" y="672.505" class="st3" width="2.893" height="0"/>
				<rect x="587.155" y="672.505" class="st3" width="2.893" height="0"/>
				<rect x="591.173" y="672.505" class="st3" width="2.893" height="0"/>
				<rect x="595.191" y="672.505" class="st3" width="2.893" height="0"/>
				<rect x="599.209" y="672.505" class="st3" width="2.893" height="0"/>
				<rect x="603.226" y="672.505" class="st3" width="2.893" height="0"/>
				<rect x="607.244" y="672.505" class="st3" width="2.893" height="0"/>
				<rect x="611.262" y="672.505" class="st3" width="2.893" height="0"/>
				<rect x="615.28" y="672.505" class="st3" width="2.893" height="0"/>
				<rect x="619.297" y="672.505" class="st3" width="2.893" height="0"/>
				<rect x="623.315" y="672.505" class="st3" width="2.893" height="0"/>
				<rect x="627.333" y="672.505" class="st3" width="2.893" height="0"/>
				<rect x="631.351" y="672.505" class="st3" width="2.893" height="0"/>
				<rect x="635.368" y="672.505" class="st3" width="2.893" height="0"/>
				<rect x="639.386" y="672.505" class="st3" width="2.893" height="0"/>
				<rect x="643.404" y="672.505" class="st3" width="2.893" height="0"/>
				<rect x="647.422" y="672.505" class="st3" width="2.893" height="0"/>
				<rect x="651.44" y="672.505" class="st3" width="2.893" height="0"/>
				<rect x="655.457" y="672.505" class="st3" width="2.893" height="0"/>
				<rect x="659.475" y="672.505" class="st3" width="2.893" height="0"/>
				<rect x="663.493" y="672.505" class="st3" width="2.893" height="0"/>
				<rect x="667.51" y="672.505" class="st3" width="2.893" height="0"/>
				<rect x="671.528" y="672.505" class="st3" width="2.893" height="0"/>
				<rect x="675.546" y="616.504" class="st3" width="2.893" height="56"/>
				<rect x="679.564" y="672.505" class="st3" width="2.893" height="0"/>
				<rect x="683.582" y="672.505" class="st3" width="2.893" height="0"/>
				<rect x="687.599" y="672.505" class="st3" width="2.893" height="0"/>
				<rect x="691.617" y="672.505" class="st3" width="2.893" height="0"/>
				<rect x="695.635" y="672.505" class="st3" width="2.893" height="0"/>
				<rect x="699.653" y="672.505" class="st3" width="2.893" height="0"/>
				<rect x="703.67" y="672.505" class="st3" width="2.893" height="0"/>
				<rect x="707.688" y="672.505" class="st3" width="2.893" height="0"/>
				<rect x="711.706" y="672.505" class="st3" width="2.893" height="0"/>
				<rect x="715.724" y="672.505" class="st3" width="2.893" height="0"/>
				<rect x="719.741" y="672.505" class="st3" width="2.893" height="0"/>
				<rect x="723.759" y="672.505" class="st3" width="2.893" height="0"/>
				<rect x="727.777" y="672.505" class="st3" width="2.893" height="0"/>
				<rect x="731.795" y="672.505" class="st3" width="2.893" height="0"/>
				<rect x="735.812" y="672.505" class="st3" width="2.893" height="0"/>
				<rect x="739.83" y="672.505" class="st3" width="2.893" height="0"/>
				<rect x="743.848" y="672.505" class="st3" width="2.893" height="0"/>
				<rect x="747.866" y="672.505" class="st3" width="2.893" height="0"/>
				<rect x="751.883" y="672.505" class="st3" width="2.893" height="0"/>
				<rect x="755.901" y="672.505" class="st3" width="2.893" height="0"/>
				<rect x="759.919" y="672.505" class="st3" width="2.893" height="0"/>
				<rect x="763.937" y="672.505" class="st3" width="2.893" height="0"/>
				<rect x="767.955" y="672.505" class="st3" width="2.893" height="0"/>
				<rect x="771.972" y="672.505" class="st3" width="2.893" height="0"/>
				<rect x="775.99" y="672.505" class="st3" width="2.893" height="0"/>
				<rect x="780.008" y="672.505" class="st3" width="2.893" height="0"/>
				<rect x="784.026" y="672.505" class="st3" width="2.893" height="0"/>
				<rect x="788.043" y="616.504" class="st3" width="2.893" height="56"/>
				<rect x="792.061" y="672.505" class="st3" width="2.893" height="0"/>
				<rect x="796.079" y="672.505" class="st3" width="2.893" height="0"/>
				<rect x="800.097" y="672.505" class="st3" width="2.893" height="0"/>
				<rect x="804.114" y="672.505" class="st3" width="2.893" height="0"/>
				<rect x="808.132" y="616.504" class="st3" width="2.893" height="56"/>
				<rect x="812.15" y="672.505" class="st3" width="2.893" height="0"/>
				<rect x="816.168" y="672.505" class="st3" width="2.893" height="0"/>
				<rect x="820.185" y="672.505" class="st3" width="2.893" height="0"/>
				<rect x="824.203" y="616.504" class="st3" width="2.893" height="56"/>
				<rect x="828.221" y="560.504" class="st3" width="2.893" height="112.001"/>
				<rect x="832.239" y="672.505" class="st3" width="2.893" height="0"/>
				<rect x="836.256" y="672.505" class="st3" width="2.893" height="0"/>
				<rect x="840.274" y="672.505" class="st3" width="2.893" height="0"/>
				<rect x="844.292" y="672.505" class="st3" width="2.893" height="0"/>
				<rect x="848.31" y="672.505" class="st3" width="2.893" height="0"/>
				<rect x="852.327" y="672.505" class="st3" width="2.893" height="0"/>
				<rect x="856.345" y="672.505" class="st3" width="2.893" height="0"/>
				<rect x="860.363" y="672.505" class="st3" width="2.893" height="0"/>
				<rect x="864.381" y="672.505" class="st3" width="2.893" height="0"/>
				<rect x="868.398" y="560.504" class="st3" width="2.893" height="112.001"/>
				<rect x="872.416" y="616.504" class="st3" width="2.893" height="56"/>
				<rect x="876.434" y="672.505" class="st3" width="2.893" height="0"/>
				<rect x="880.452" y="672.505" class="st3" width="2.893" height="0"/>
				<rect x="884.47" y="672.505" class="st3" width="2.893" height="0"/>
				<rect x="888.487" y="672.505" class="st3" width="2.893" height="0"/>
				<rect x="892.505" y="672.505" class="st3" width="2.893" height="0"/>
				<rect x="896.523" y="672.505" class="st3" width="2.893" height="0"/>
				<rect x="900.541" y="672.505" class="st3" width="2.893" height="0"/>
				<rect x="904.558" y="672.505" class="st3" width="2.893" height="0"/>
				<rect x="908.576" y="672.505" class="st3" width="2.893" height="0"/>
				<rect x="912.594" y="672.505" class="st3" width="2.893" height="0"/>
				<rect x="916.612" y="672.505" class="st3" width="2.893" height="0"/>
				<rect x="920.629" y="672.505" class="st3" width="2.893" height="0"/>
				<rect x="924.647" y="672.505" class="st3" width="2.893" height="0"/>
				<rect x="928.665" y="672.505" class="st3" width="2.893" height="0"/>
				<rect x="932.683" y="672.505" class="st3" width="2.893" height="0"/>
				<rect x="936.7" y="672.505" class="st3" width="2.893" height="0"/>
				<rect x="940.718" y="672.505" class="st3" width="2.893" height="0"/>
				<rect x="944.736" y="672.505" class="st3" width="2.893" height="0"/>
				<rect x="948.754" y="672.505" class="st3" width="2.893" height="0"/>
				<rect x="952.771" y="672.505" class="st3" width="2.893" height="0"/>
				<rect x="956.789" y="672.505" class="st3" width="2.893" height="0"/>
				<rect x="960.807" y="616.504" class="st3" width="2.893" height="56"/>
				<rect x="964.825" y="672.505" class="st3" width="2.893" height="0"/>
				<rect x="968.842" y="616.504" class="st3" width="2.893" height="56"/>
				<rect x="972.86" y="672.505" class="st3" width="2.893" height="0"/>
				<rect x="976.878" y="672.505" class="st3" width="2.893" height="0"/>
				<rect x="980.896" y="672.505" class="st3" width="2.893" height="0"/>
				<rect x="984.914" y="616.504" class="st3" width="2.893" height="56"/>
				<rect x="988.931" y="672.505" class="st3" width="2.893" height="0"/>
				<rect x="992.949" y="672.505" class="st3" width="2.893" height="0"/>
				<rect x="996.967" y="616.504" class="st3" width="2.893" height="56"/>
				<rect x="1000.985" y="616.504" class="st3" width="2.893" height="56"/>
				<rect x="1005.002" y="616.504" class="st3" width="2.893" height="56"/>
				<rect x="1009.02" y="672.505" class="st3" width="2.893" height="0"/>
				<rect x="1013.038" y="616.504" class="st3" width="2.893" height="56"/>
				<rect x="1017.056" y="560.504" class="st3" width="2.893" height="112.001"/>
				<rect x="1021.073" y="616.504" class="st3" width="2.893" height="56"/>
				<rect x="1025.091" y="560.504" class="st3" width="2.893" height="112.001"/>
				<rect x="1029.109" y="672.505" class="st3" width="2.893" height="0"/>
				<rect x="1033.127" y="504.503" class="st3" width="2.893" height="168.001"/>
				<rect x="1037.144" y="672.505" class="st3" width="2.893" height="0"/>
				<rect x="1041.162" y="560.504" class="st3" width="2.893" height="112.001"/>
				<rect x="1045.18" y="672.505" class="st3" width="2.893" height="0"/>
				<rect x="1049.198" y="504.503" class="st3" width="2.893" height="168.001"/>
				<rect x="1053.215" y="560.504" class="st3" width="2.893" height="112.001"/>
				<rect x="1057.233" y="504.503" class="st3" width="2.893" height="168.001"/>
				<rect x="1061.251" y="392.503" class="st3" width="2.893" height="280.002"/>
				<rect x="1065.269" y="448.503" class="st3" width="2.893" height="224.002"/>
				<rect x="1069.286" y="560.504" class="st3" width="2.893" height="112.001"/>
				<rect x="1073.304" y="560.504" class="st3" width="2.893" height="112.001"/>
				<rect x="1077.322" y="336.502" class="st3" width="2.893" height="336.002"/>
				<rect x="1081.34" y="448.503" class="st3" width="2.893" height="224.002"/>
				<rect x="1085.358" y="560.504" class="st3" width="2.893" height="112.001"/>
				<rect x="1089.375" y="336.502" class="st3" width="2.893" height="336.002"/>
				<rect x="1093.393" y="224.502" class="st3" width="2.893" height="448.003"/>
				<rect x="1097.411" y="504.503" class="st3" width="2.893" height="168.001"/>
				<rect x="1101.428" y="336.502" class="st3" width="2.893" height="336.002"/>
				<rect x="1105.446" y="56.5" class="st3" width="2.893" height="616.004"/>
				<rect x="1109.464" y="448.503" class="st3" width="2.893" height="224.002"/>
				<rect x="1113.482" y="168.501" class="st3" width="2.893" height="504.003"/>
				<rect x="1117.5" y="336.502" class="st3" width="2.893" height="336.002"/>
				<rect x="1121.517" y="504.503" class="st3" width="2.893" height="168.001"/>
				<rect x="1125.535" y="560.504" class="st3" width="2.893" height="112.001"/>
				<rect x="1129.553" y="224.502" class="st3" width="2.893" height="448.003"/>
				<rect x="1133.571" y="336.502" class="st3" width="2.893" height="336.002"/>
				<rect x="1137.588" y="448.503" class="st3" width="2.893" height="224.002"/>
				<rect x="1141.606" y="224.502" class="st3" width="2.893" height="448.003"/>
				<rect x="1145.624" y="280.502" class="st3" width="2.893" height="392.003"/>
				<rect x="1149.642" y="168.501" class="st3" width="2.893" height="504.003"/>
				<rect x="1153.659" y="504.503" class="st3" width="2.893" height="168.001"/>
				<rect x="1157.677" y="560.504" class="st3" width="2.893" height="112.001"/>
				<rect x="1161.695" y="560.504" class="st3" width="2.893" height="112.001"/>
				<rect x="1165.713" y="504.503" class="st3" width="2.893" height="168.001"/>
				<rect x="1169.73" y="504.503" class="st3" width="2.893" height="168.001"/>
				<rect x="1173.748" y="448.503" class="st3" width="2.893" height="224.002"/>
				<rect x="1177.766" y="280.502" class="st3" width="2.893" height="392.003"/>
				<rect x="1181.784" y="616.504" class="st3" width="2.893" height="56"/>
				<rect x="1185.802" y="504.503" class="st3" width="2.893" height="168.001"/>
				<rect x="1189.819" y="504.503" class="st3" width="2.893" height="168.001"/>
				<rect x="1193.837" y="448.503" class="st3" width="2.893" height="224.002"/>
				<rect x="1197.855" y="616.504" class="st3" width="2.893" height="56"/>
				<rect x="1201.873" y="392.503" class="st3" width="2.893" height="280.002"/>
				<rect x="1205.89" y="560.504" class="st3" width="2.893" height="112.001"/>
				<rect x="1209.908" y="616.504" class="st3" width="2.893" height="56"/>
				<rect x="1213.926" y="504.503" class="st3" width="2.893" height="168.001"/>
				<rect x="1217.943" y="504.503" class="st3" width="2.893" height="168.001"/>
				<rect x="1221.961" y="504.503" class="st3" width="2.893" height="168.001"/>
				<rect x="1225.979" y="672.505" class="st3" width="2.893" height="0"/>
				<rect x="1229.997" y="448.503" class="st3" width="2.893" height="224.002"/>
				<rect x="1234.015" y="616.504" class="st3" width="2.893" height="56"/>
				<rect x="1238.032" y="560.504" class="st3" width="2.893" height="112.001"/>
				<rect x="1242.05" y="504.503" class="st3" width="2.893" height="168.001"/>
				<rect x="1246.068" y="504.503" class="st3" width="2.893" height="168.001"/>
				<rect x="1250.086" y="448.503" class="st3" width="2.893" height="224.002"/>
				<rect x="1254.103" y="504.503" class="st3" width="2.893" height="168.001"/>
				<rect x="1258.121" y="504.503" class="st3" width="2.893" height="168.001"/>
				<rect x="1262.139" y="616.504" class="st3" width="2.893" height="56"/>
				<rect x="1266.157" y="616.504" class="st3" width="2.893" height="56"/>
				<rect x="1270.174" y="560.504" class="st3" width="2.893" height="112.001"/>
				<rect x="1274.192" y="616.504" class="st3" width="2.893" height="56"/>
				<rect x="1278.21" y="616.504" class="st3" width="2.893" height="56"/>
				<rect x="1282.228" y="616.504" class="st3" width="2.893" height="56"/>
				<rect x="1286.245" y="616.504" class="st3" width="2.893" height="56"/>
				<rect x="1290.263" y="616.504" class="st3" width="2.893" height="56"/>
				<rect x="1294.281" y="672.505" class="st3" width="2.893" height="0"/>
				<rect x="1298.299" y="672.505" class="st3" width="2.893" height="0"/>
				<rect x="1302.317" y="616.504" class="st3" width="2.893" height="56"/>
				<rect x="1306.334" y="616.504" class="st3" width="2.893" height="56"/>
				<rect x="1310.352" y="560.504" class="st3" width="2.893" height="112.001"/>
				<rect x="1314.37" y="560.504" class="st3" width="2.893" height="112.001"/>
				<rect x="1318.388" y="504.503" class="st3" width="2.893" height="168.001"/>
				<rect x="1322.405" y="672.505" class="st3" width="2.893" height="0"/>
				<rect x="1326.423" y="672.505" class="st3" width="2.893" height="0"/>
				<rect x="1330.441" y="560.504" class="st3" width="2.893" height="112.001"/>
				<rect x="1334.459" y="672.505" class="st3" width="2.893" height="0"/>
				<rect x="1338.476" y="672.505" class="st3" width="2.893" height="0"/>
				<rect x="1342.494" y="672.505" class="st3" width="2.893" height="0"/>
				<rect x="1346.512" y="616.504" class="st3" width="2.893" height="56"/>
				<rect x="1350.53" y="616.504" class="st3" width="2.893" height="56"/>
				<rect x="1354.547" y="672.505" class="st3" width="2.893" height="0"/>
				<rect x="1358.565" y="672.505" class="st3" width="2.893" height="0"/>
				<rect x="1362.583" y="560.504" class="st3" width="2.893" height="112.001"/>
				<rect x="1366.601" y="616.504" class="st3" width="2.893" height="56"/>
				<rect x="1370.618" y="672.505" class="st3" width="2.893" height="0"/>
				<rect x="1374.636" y="616.504" class="st3" width="2.893" height="56"/>
				<rect x="1378.654" y="672.505" class="st3" width="2.893" height="0"/>
				<rect x="1382.672" y="672.505" class="st3" width="2.893" height="0"/>
				<rect x="1386.689" y="616.504" class="st3" width="2.893" height="56"/>
				<rect x="1390.707" y="672.505" class="st3" width="2.893" height="0"/>
				<rect x="1394.725" y="672.505" class="st3" width="2.893" height="0"/>
				<rect x="1398.743" y="672.505" class="st3" width="2.893" height="0"/>
				<rect x="1402.76" y="560.504" class="st3" width="2.893" height="112.001"/>
				<rect x="1406.778" y="672.505" class="st3" width="2.893" height="0"/>
				<rect x="1410.796" y="616.504" class="st3" width="2.893" height="56"/>
				<rect x="1414.814" y="672.505" class="st3" width="2.893" height="0"/>
				<rect x="1418.832" y="672.505" class="st3" width="2.893" height="0"/>
			</g>
		</g>
	</g>
</g>
<line class="st1" x1="0" y1="672.505" x2="1446.889" y2="672.505"/>
<rect y="672.505" class="st0" width="56.249" height="14.654"/>
<rect x="176.782" y="672.505" class="st0" width="124.55" height="14.654"/>
<rect x="421.865" y="672.505" class="st0" width="124.551" height="14.654"/>
<rect x="670.965" y="672.505" class="st0" width="120.533" height="14.654"/>
<rect x="916.051" y="672.505" class="st0" width="120.531" height="14.654"/>
<rect x="1161.135" y="672.505" class="st0" width="124.548" height="14.654"/>
<rect x="1398.181" y="672.505" class="st0" width="20.09" height="14.654"/>
<line class="st1" x1="670.965" y1="672.505" x2="670.965" y2="687.159"/>
<line class="st1" x1="791.499" y1="672.505" x2="791.499" y2="687.159"/>
<line class="st1" x1="916.049" y1="672.505" x2="916.049" y2="687.159"/>
<line class="st1" x1="1036.582" y1="672.505" x2="1036.582" y2="687.159"/>
<line class="st1" x1="1161.132" y1="672.505" x2="1161.132" y2="687.159"/>
<line class="st1" x1="1285.683" y1="672.505" x2="1285.683" y2="687.159"/>
<line class="st1" x1="1398.181" y1="672.505" x2="1398.181" y2="687.159"/>
<line class="st1" x1="546.415" y1="672.505" x2="546.415" y2="687.159"/>
<line class="st1" x1="421.865" y1="672.505" x2="421.865" y2="687.159"/>
<line class="st1" x1="301.332" y1="672.505" x2="301.332" y2="687.159"/>
<line class="st1" x1="176.781" y1="672.505" x2="176.781" y2="687.159"/>
<line class="st1" x1="56.249" y1="672.505" x2="56.249" y2="687.159"/>
<g>
	<g>
		<path d="M16.793,686.136l-3.633,8.884h-0.545l-3.617-8.884v8.884H7.67v-10.676h1.904l3.313,8.131l3.329-8.131h1.905v10.676h-1.329
			V686.136z"/>
		<path d="M25.399,694.139c-0.641,0.704-1.521,1.073-2.561,1.073c-1.313,0-2.706-0.88-2.706-2.561c0-1.729,1.393-2.545,2.706-2.545
			c1.056,0,1.937,0.336,2.561,1.056v-1.392c0-1.041-0.832-1.633-1.953-1.633c-0.928,0-1.681,0.336-2.368,1.073l-0.561-0.832
			c0.832-0.865,1.824-1.281,3.089-1.281c1.633,0,2.993,0.736,2.993,2.609v5.314h-1.2V694.139z M25.399,691.93
			c-0.464-0.64-1.28-0.96-2.129-0.96c-1.12,0-1.904,0.704-1.904,1.697c0,0.977,0.784,1.681,1.904,1.681
			c0.849,0,1.665-0.32,2.129-0.96V691.93z"/>
		<path d="M28.998,687.289h1.2v1.249c0.624-0.816,1.521-1.408,2.577-1.408v1.232c-0.145-0.032-0.288-0.048-0.48-0.048
			c-0.736,0-1.745,0.608-2.097,1.233v5.474h-1.2V687.289z"/>
		<path d="M37.686,687.097c1.408,0,2.24,0.576,2.833,1.344l-0.801,0.736c-0.512-0.704-1.168-1.009-1.969-1.009
			c-1.648,0-2.673,1.265-2.673,2.977s1.024,2.993,2.673,2.993c0.801,0,1.457-0.32,1.969-1.008l0.801,0.736
			c-0.593,0.768-1.425,1.344-2.833,1.344c-2.306,0-3.857-1.761-3.857-4.066C33.829,688.857,35.381,687.097,37.686,687.097z"/>
		<path d="M47.43,689.93c0-1.361-0.704-1.761-1.744-1.761c-0.929,0-1.825,0.576-2.289,1.2v5.65h-1.2v-10.676h1.2v4.066
			c0.544-0.64,1.601-1.312,2.769-1.312c1.617,0,2.466,0.784,2.466,2.465v5.458H47.43V689.93z"/>
	</g>
</g>
<g>
	<g>
		<path d="M234.821,686.136l-3.633,8.884h-0.545l-3.617-8.884v8.884h-1.328v-10.676h1.904l3.313,8.131l3.329-8.131h1.905v10.676
			h-1.329V686.136z"/>
		<path d="M243.427,694.139c-0.641,0.704-1.521,1.073-2.561,1.073c-1.313,0-2.706-0.88-2.706-2.561c0-1.729,1.393-2.545,2.706-2.545
			c1.056,0,1.937,0.336,2.561,1.056v-1.392c0-1.041-0.832-1.633-1.953-1.633c-0.928,0-1.681,0.336-2.368,1.073l-0.561-0.832
			c0.832-0.865,1.824-1.281,3.089-1.281c1.633,0,2.993,0.736,2.993,2.609v5.314h-1.2V694.139z M243.427,691.93
			c-0.464-0.64-1.28-0.96-2.129-0.96c-1.12,0-1.904,0.704-1.904,1.697c0,0.977,0.784,1.681,1.904,1.681
			c0.849,0,1.665-0.32,2.129-0.96V691.93z"/>
		<path d="M247.442,697.085c0.528,0,0.88-0.176,1.152-0.816l0.512-1.168l-3.233-7.811h1.297l2.577,6.339l2.561-6.339h1.312
			l-3.873,9.3c-0.464,1.12-1.249,1.553-2.273,1.569c-0.256,0-0.656-0.048-0.88-0.112l0.192-1.088
			C246.962,697.037,247.25,697.085,247.442,697.085z"/>
	</g>
</g>
<g>
	<g>
		<path d="M345.342,692.971c0.465,0.56,1.089,1.056,2.018,1.056c1.312,0,2.145-0.912,2.145-2.241v-7.443h1.328v7.459
			c0,2.321-1.488,3.409-3.393,3.409c-1.137,0-2.049-0.368-2.785-1.233L345.342,692.971z"/>
		<path d="M358.497,693.931c-0.593,0.672-1.601,1.281-2.753,1.281c-1.617,0-2.465-0.784-2.465-2.465v-5.458h1.2v5.09
			c0,1.361,0.688,1.761,1.729,1.761c0.944,0,1.841-0.544,2.289-1.168v-5.682h1.2v7.731h-1.2V693.931z"/>
		<path d="M367.313,689.962c0-1.361-0.688-1.793-1.729-1.793c-0.944,0-1.841,0.576-2.289,1.2v5.65h-1.2v-7.731h1.2v1.121
			c0.544-0.64,1.601-1.312,2.753-1.312c1.616,0,2.465,0.816,2.465,2.497v5.426h-1.2V689.962z"/>
		<path d="M374.272,687.097c2.337,0,3.713,1.825,3.713,4.146v0.304h-6.259c0.097,1.457,1.121,2.673,2.785,2.673
			c0.881,0,1.777-0.352,2.386-0.976l0.576,0.784c-0.769,0.768-1.809,1.185-3.073,1.185c-2.289,0-3.938-1.649-3.938-4.066
			C370.463,688.905,372.063,687.097,374.272,687.097z M371.726,690.666h5.074c-0.016-1.153-0.784-2.577-2.545-2.577
			C372.607,688.089,371.791,689.481,371.726,690.666z"/>
	</g>
</g>
<g>
	<g>
		<path d="M471.077,692.971c0.464,0.56,1.088,1.056,2.017,1.056c1.312,0,2.145-0.912,2.145-2.241v-7.443h1.329v7.459
			c0,2.321-1.489,3.409-3.394,3.409c-1.137,0-2.049-0.368-2.785-1.233L471.077,692.971z"/>
		<path d="M484.231,693.931c-0.593,0.672-1.601,1.281-2.753,1.281c-1.617,0-2.465-0.784-2.465-2.465v-5.458h1.2v5.09
			c0,1.361,0.688,1.761,1.729,1.761c0.944,0,1.841-0.544,2.289-1.168v-5.682h1.2v7.731h-1.2V693.931z"/>
		<path d="M487.829,684.343h1.2v10.676h-1.2V684.343z"/>
		<path d="M491.844,697.085c0.528,0,0.881-0.176,1.152-0.816l0.513-1.168l-3.233-7.811h1.297l2.576,6.339l2.562-6.339h1.312
			l-3.874,9.3c-0.464,1.12-1.248,1.553-2.272,1.569c-0.256,0-0.656-0.048-0.881-0.112l0.192-1.088
			C491.364,697.037,491.653,697.085,491.844,697.085z"/>
	</g>
</g>
<g>
	<g>
		<path d="M593.013,692.651h-5.41l-0.944,2.369h-1.473l4.29-10.676h1.648l4.306,10.676h-1.473L593.013,692.651z M587.988,691.466
			h4.626l-2.306-5.938L587.988,691.466z"/>
		<path d="M601.797,693.931c-0.592,0.672-1.601,1.281-2.753,1.281c-1.616,0-2.465-0.784-2.465-2.465v-5.458h1.2v5.09
			c0,1.361,0.688,1.761,1.729,1.761c0.944,0,1.84-0.544,2.288-1.168v-5.682h1.201v7.731h-1.201V693.931z"/>
		<path d="M605.987,696.108c0.641,0.768,1.408,1.056,2.513,1.056c1.281,0,2.481-0.624,2.481-2.321v-1.104
			c-0.561,0.784-1.505,1.376-2.593,1.376c-2.018,0-3.441-1.505-3.441-4.001c0-2.481,1.408-4.018,3.441-4.018
			c1.04,0,1.969,0.512,2.593,1.36v-1.168h1.2v7.507c0,2.561-1.793,3.361-3.682,3.361c-1.312,0-2.209-0.256-3.121-1.152
			L605.987,696.108z M610.981,689.417c-0.416-0.672-1.345-1.249-2.305-1.249c-1.553,0-2.481,1.233-2.481,2.945
			c0,1.697,0.929,2.945,2.481,2.945c0.96,0,1.889-0.592,2.305-1.264V689.417z"/>
		<path d="M619.797,693.931c-0.592,0.672-1.601,1.281-2.753,1.281c-1.616,0-2.465-0.784-2.465-2.465v-5.458h1.2v5.09
			c0,1.361,0.688,1.761,1.729,1.761c0.944,0,1.84-0.544,2.288-1.168v-5.682h1.201v7.731h-1.201V693.931z"/>
		<path d="M623.346,693.131c0.512,0.592,1.488,1.104,2.545,1.104c1.185,0,1.825-0.528,1.825-1.281c0-0.848-0.945-1.12-1.985-1.376
			c-1.312-0.304-2.801-0.656-2.801-2.257c0-1.2,1.04-2.225,2.881-2.225c1.312,0,2.241,0.496,2.865,1.12l-0.561,0.832
			c-0.464-0.56-1.312-0.976-2.305-0.976c-1.057,0-1.713,0.48-1.713,1.168c0,0.752,0.881,0.992,1.889,1.232
			c1.345,0.304,2.897,0.688,2.897,2.401c0,1.296-1.04,2.337-3.041,2.337c-1.265,0-2.337-0.384-3.121-1.217L623.346,693.131z"/>
		<path d="M631.075,693.403v-5.058h-1.28v-1.056h1.28v-2.113h1.2v2.113h1.568v1.056h-1.568v4.802c0,0.576,0.256,0.992,0.784,0.992
			c0.337,0,0.656-0.144,0.816-0.32l0.353,0.896c-0.305,0.288-0.736,0.496-1.44,0.496
			C631.651,695.212,631.075,694.556,631.075,693.403z"/>
	</g>
</g>
<g>
	<g>
		<path d="M693.777,692.507c0.705,0.784,1.857,1.521,3.361,1.521c1.905,0,2.514-1.024,2.514-1.841c0-1.281-1.297-1.633-2.705-2.017
			c-1.713-0.448-3.617-0.928-3.617-3.025c0-1.761,1.568-2.961,3.665-2.961c1.633,0,2.897,0.544,3.794,1.489l-0.801,0.976
			c-0.801-0.88-1.921-1.281-3.09-1.281c-1.279,0-2.192,0.688-2.192,1.697c0,1.073,1.232,1.393,2.593,1.761
			c1.745,0.464,3.73,1.009,3.73,3.249c0,1.553-1.057,3.137-3.938,3.137c-1.857,0-3.218-0.704-4.098-1.697L693.777,692.507z"/>
		<path d="M706.323,687.097c2.337,0,3.714,1.825,3.714,4.146v0.304h-6.26c0.097,1.457,1.121,2.673,2.785,2.673
			c0.881,0,1.777-0.352,2.386-0.976l0.576,0.784c-0.769,0.768-1.809,1.185-3.073,1.185c-2.289,0-3.938-1.649-3.938-4.066
			C702.513,688.905,704.114,687.097,706.323,687.097z M703.777,690.666h5.074c-0.016-1.153-0.783-2.577-2.545-2.577
			C704.658,688.089,703.842,689.481,703.777,690.666z"/>
		<path d="M711.969,697.965v-10.677h1.2v1.153c0.561-0.784,1.521-1.344,2.609-1.344c2.033,0,3.441,1.537,3.441,4.05
			c0,2.497-1.408,4.066-3.441,4.066c-1.057,0-1.984-0.496-2.609-1.361v4.114H711.969z M715.474,688.169
			c-0.943,0-1.889,0.56-2.305,1.233v3.489c0.416,0.672,1.361,1.249,2.305,1.249c1.553,0,2.481-1.281,2.481-2.993
			S717.027,688.169,715.474,688.169z"/>
		<path d="M721.392,693.403v-5.058h-1.279v-1.056h1.279v-2.113h1.201v2.113h1.568v1.056h-1.568v4.802
			c0,0.576,0.256,0.992,0.784,0.992c0.337,0,0.656-0.144,0.816-0.32l0.353,0.896c-0.305,0.288-0.736,0.496-1.441,0.496
			C721.969,695.212,721.392,694.556,721.392,693.403z"/>
		<path d="M729.219,687.097c2.337,0,3.713,1.825,3.713,4.146v0.304h-6.258c0.096,1.457,1.12,2.673,2.785,2.673
			c0.88,0,1.776-0.352,2.385-0.976l0.576,0.784c-0.769,0.768-1.809,1.185-3.073,1.185c-2.289,0-3.938-1.649-3.938-4.066
			C725.409,688.905,727.01,687.097,729.219,687.097z M726.674,690.666h5.074c-0.017-1.153-0.785-2.577-2.545-2.577
			C727.553,688.089,726.738,689.481,726.674,690.666z"/>
		<path d="M744.197,689.77c0-0.977-0.433-1.601-1.425-1.601c-0.801,0-1.649,0.576-2.049,1.185v5.666h-1.2v-5.25
			c0-0.977-0.416-1.601-1.426-1.601c-0.783,0-1.615,0.576-2.032,1.2v5.65h-1.2v-7.731h1.2v1.121c0.32-0.496,1.36-1.312,2.497-1.312
			c1.185,0,1.857,0.64,2.081,1.44c0.433-0.704,1.472-1.44,2.593-1.44c1.408,0,2.161,0.784,2.161,2.337v5.586h-1.2V689.77z"/>
		<path d="M747.793,684.343h1.2v4.114c0.624-0.848,1.553-1.36,2.609-1.36c2.017,0,3.44,1.601,3.44,4.065
			c0,2.513-1.424,4.05-3.44,4.05c-1.089,0-2.033-0.56-2.609-1.344v1.152h-1.2V684.343z M751.299,694.139
			c1.568,0,2.496-1.264,2.496-2.977c0-1.713-0.928-2.993-2.496-2.993c-0.945,0-1.889,0.576-2.306,1.249v3.505
			C749.41,693.595,750.353,694.139,751.299,694.139z"/>
		<path d="M760.354,687.097c2.337,0,3.714,1.825,3.714,4.146v0.304h-6.26c0.097,1.457,1.121,2.673,2.785,2.673
			c0.881,0,1.777-0.352,2.386-0.976l0.576,0.784c-0.769,0.768-1.809,1.185-3.073,1.185c-2.289,0-3.938-1.649-3.938-4.066
			C756.545,688.905,758.145,687.097,760.354,687.097z M757.808,690.666h5.074c-0.016-1.153-0.783-2.577-2.545-2.577
			C758.689,688.089,757.873,689.481,757.808,690.666z"/>
		<path d="M766.001,687.289h1.2v1.249c0.625-0.816,1.521-1.408,2.577-1.408v1.232c-0.144-0.032-0.288-0.048-0.479-0.048
			c-0.736,0-1.746,0.608-2.098,1.233v5.474h-1.2V687.289z"/>
	</g>
</g>
<g>
	<g>
		<path d="M831.138,684.167c3.152,0,5.298,2.369,5.298,5.522s-2.146,5.522-5.298,5.522c-3.17,0-5.299-2.369-5.299-5.522
			S827.969,684.167,831.138,684.167z M831.138,685.352c-2.401,0-3.922,1.841-3.922,4.338c0,2.481,1.521,4.338,3.922,4.338
			c2.385,0,3.922-1.857,3.922-4.338C835.06,687.193,833.523,685.352,831.138,685.352z"/>
		<path d="M841.874,687.097c1.409,0,2.241,0.576,2.833,1.344l-0.801,0.736c-0.512-0.704-1.168-1.009-1.969-1.009
			c-1.648,0-2.672,1.265-2.672,2.977s1.023,2.993,2.672,2.993c0.801,0,1.457-0.32,1.969-1.008l0.801,0.736
			c-0.592,0.768-1.424,1.344-2.833,1.344c-2.306,0-3.857-1.761-3.857-4.066C838.016,688.857,839.568,687.097,841.874,687.097z"/>
		<path d="M846.625,693.403v-5.058h-1.281v-1.056h1.281v-2.113h1.2v2.113h1.568v1.056h-1.568v4.802c0,0.576,0.256,0.992,0.784,0.992
			c0.336,0,0.656-0.144,0.816-0.32l0.352,0.896c-0.304,0.288-0.736,0.496-1.439,0.496
			C847.201,695.212,846.625,694.556,846.625,693.403z"/>
		<path d="M850.64,691.146c0-2.241,1.473-4.05,3.824-4.05c2.354,0,3.826,1.809,3.826,4.05s-1.473,4.066-3.826,4.066
			C852.113,695.212,850.64,693.387,850.64,691.146z M857.026,691.146c0-1.569-0.912-2.977-2.562-2.977
			c-1.648,0-2.576,1.409-2.576,2.977c0,1.585,0.928,2.993,2.576,2.993C856.114,694.139,857.026,692.731,857.026,691.146z"/>
		<path d="M860.24,684.343h1.2v4.114c0.624-0.848,1.553-1.36,2.609-1.36c2.017,0,3.44,1.601,3.44,4.065
			c0,2.513-1.424,4.05-3.44,4.05c-1.089,0-2.033-0.56-2.609-1.344v1.152h-1.2V684.343z M863.746,694.139
			c1.568,0,2.496-1.264,2.496-2.977c0-1.713-0.928-2.993-2.496-2.993c-0.945,0-1.889,0.576-2.306,1.249v3.505
			C861.857,693.595,862.801,694.139,863.746,694.139z"/>
		<path d="M872.802,687.097c2.337,0,3.714,1.825,3.714,4.146v0.304h-6.26c0.097,1.457,1.121,2.673,2.785,2.673
			c0.881,0,1.777-0.352,2.386-0.976l0.576,0.784c-0.769,0.768-1.809,1.185-3.073,1.185c-2.289,0-3.938-1.649-3.938-4.066
			C868.992,688.905,870.593,687.097,872.802,687.097z M870.256,690.666h5.074c-0.016-1.153-0.783-2.577-2.545-2.577
			C871.136,688.089,870.32,689.481,870.256,690.666z"/>
		<path d="M878.448,687.289h1.2v1.249c0.625-0.816,1.521-1.408,2.577-1.408v1.232c-0.144-0.032-0.288-0.048-0.479-0.048
			c-0.736,0-1.746,0.608-2.098,1.233v5.474h-1.2V687.289z"/>
	</g>
</g>
<g>
	<g>
		<path d="M942.022,686.408v8.612h-1.329v-10.676h1.36l6.146,8.435v-8.435h1.329v10.676h-1.28L942.022,686.408z"/>
		<path d="M951.525,691.146c0-2.241,1.473-4.05,3.825-4.05c2.354,0,3.826,1.809,3.826,4.05s-1.473,4.066-3.826,4.066
			C952.998,695.212,951.525,693.387,951.525,691.146z M957.912,691.146c0-1.569-0.912-2.977-2.562-2.977
			c-1.648,0-2.576,1.409-2.576,2.977c0,1.585,0.928,2.993,2.576,2.993C957,694.139,957.912,692.731,957.912,691.146z"/>
		<path d="M959.972,687.289h1.297l2.576,6.339l2.562-6.339h1.312l-3.218,7.731h-1.312L959.972,687.289z"/>
		<path d="M972.326,687.097c2.337,0,3.714,1.825,3.714,4.146v0.304h-6.259c0.096,1.457,1.12,2.673,2.785,2.673
			c0.88,0,1.776-0.352,2.385-0.976l0.576,0.784c-0.769,0.768-1.809,1.185-3.073,1.185c-2.289,0-3.938-1.649-3.938-4.066
			C968.516,688.905,970.117,687.097,972.326,687.097z M969.781,690.666h5.074c-0.017-1.153-0.784-2.577-2.545-2.577
			C970.661,688.089,969.845,689.481,969.781,690.666z"/>
		<path d="M987.304,689.77c0-0.977-0.433-1.601-1.425-1.601c-0.801,0-1.648,0.576-2.049,1.185v5.666h-1.2v-5.25
			c0-0.977-0.416-1.601-1.425-1.601c-0.784,0-1.616,0.576-2.033,1.2v5.65h-1.2v-7.731h1.2v1.121c0.32-0.496,1.361-1.312,2.497-1.312
			c1.185,0,1.857,0.64,2.081,1.44c0.433-0.704,1.473-1.44,2.593-1.44c1.409,0,2.161,0.784,2.161,2.337v5.586h-1.2V689.77z"/>
		<path d="M990.901,684.343h1.2v4.114c0.624-0.848,1.553-1.36,2.609-1.36c2.017,0,3.441,1.601,3.441,4.065
			c0,2.513-1.425,4.05-3.441,4.05c-1.089,0-2.033-0.56-2.609-1.344v1.152h-1.2V684.343z M994.406,694.139
			c1.568,0,2.497-1.264,2.497-2.977c0-1.713-0.929-2.993-2.497-2.993c-0.944,0-1.889,0.576-2.305,1.249v3.505
			C992.517,693.595,993.462,694.139,994.406,694.139z"/>
		<path d="M1003.462,687.097c2.337,0,3.714,1.825,3.714,4.146v0.304h-6.259c0.096,1.457,1.12,2.673,2.785,2.673
			c0.88,0,1.776-0.352,2.385-0.976l0.576,0.784c-0.769,0.768-1.809,1.185-3.073,1.185c-2.289,0-3.938-1.649-3.938-4.066
			C999.652,688.905,1001.253,687.097,1003.462,687.097z M1000.917,690.666h5.074c-0.017-1.153-0.784-2.577-2.545-2.577
			C1001.797,688.089,1000.981,689.481,1000.917,690.666z"/>
		<path d="M1009.108,687.289h1.2v1.249c0.625-0.816,1.521-1.408,2.577-1.408v1.232c-0.144-0.032-0.288-0.048-0.479-0.048
			c-0.736,0-1.745,0.608-2.098,1.233v5.474h-1.2V687.289z"/>
	</g>
</g>
<g>
	<g>
		<path d="M1063.332,684.343h3.649c3.313,0,5.474,2.321,5.474,5.346c0,3.041-2.16,5.33-5.474,5.33h-3.649V684.343z
			 M1066.981,693.835c2.593,0,4.098-1.857,4.098-4.146c0-2.305-1.456-4.162-4.098-4.162h-2.321v8.307H1066.981z"/>
		<path d="M1077.845,687.097c2.336,0,3.713,1.825,3.713,4.146v0.304h-6.259c0.097,1.457,1.12,2.673,2.785,2.673
			c0.88,0,1.776-0.352,2.386-0.976l0.576,0.784c-0.77,0.768-1.809,1.185-3.074,1.185c-2.289,0-3.938-1.649-3.938-4.066
			C1074.035,688.905,1075.636,687.097,1077.845,687.097z M1075.3,690.666h5.074c-0.017-1.153-0.784-2.577-2.545-2.577
			C1076.179,688.089,1075.364,689.481,1075.3,690.666z"/>
		<path d="M1086.9,687.097c1.409,0,2.241,0.576,2.834,1.344l-0.801,0.736c-0.512-0.704-1.168-1.009-1.969-1.009
			c-1.648,0-2.673,1.265-2.673,2.977s1.024,2.993,2.673,2.993c0.801,0,1.457-0.32,1.969-1.008l0.801,0.736
			c-0.593,0.768-1.425,1.344-2.834,1.344c-2.305,0-3.857-1.761-3.857-4.066C1083.043,688.857,1084.595,687.097,1086.9,687.097z"/>
		<path d="M1094.773,687.097c2.336,0,3.713,1.825,3.713,4.146v0.304h-6.259c0.097,1.457,1.12,2.673,2.785,2.673
			c0.88,0,1.776-0.352,2.386-0.976l0.576,0.784c-0.77,0.768-1.809,1.185-3.074,1.185c-2.289,0-3.938-1.649-3.938-4.066
			C1090.963,688.905,1092.564,687.097,1094.773,687.097z M1092.227,690.666h5.074c-0.017-1.153-0.784-2.577-2.545-2.577
			C1093.107,688.089,1092.292,689.481,1092.227,690.666z"/>
		<path d="M1109.751,689.77c0-0.977-0.433-1.601-1.425-1.601c-0.801,0-1.648,0.576-2.049,1.185v5.666h-1.2v-5.25
			c0-0.977-0.416-1.601-1.425-1.601c-0.784,0-1.616,0.576-2.033,1.2v5.65h-1.199v-7.731h1.199v1.121
			c0.32-0.496,1.361-1.312,2.498-1.312c1.184,0,1.856,0.64,2.08,1.44c0.433-0.704,1.473-1.44,2.594-1.44
			c1.408,0,2.16,0.784,2.16,2.337v5.586h-1.2V689.77z"/>
		<path d="M1113.347,684.343h1.2v4.114c0.624-0.848,1.553-1.36,2.609-1.36c2.017,0,3.441,1.601,3.441,4.065
			c0,2.513-1.425,4.05-3.441,4.05c-1.089,0-2.033-0.56-2.609-1.344v1.152h-1.2V684.343z M1116.853,694.139
			c1.568,0,2.496-1.264,2.496-2.977c0-1.713-0.928-2.993-2.496-2.993c-0.945,0-1.89,0.576-2.306,1.249v3.505
			C1114.964,693.595,1115.908,694.139,1116.853,694.139z"/>
		<path d="M1125.908,687.097c2.338,0,3.714,1.825,3.714,4.146v0.304h-6.259c0.096,1.457,1.121,2.673,2.785,2.673
			c0.881,0,1.777-0.352,2.385-0.976l0.576,0.784c-0.768,0.768-1.809,1.185-3.072,1.185c-2.289,0-3.938-1.649-3.938-4.066
			C1122.099,688.905,1123.699,687.097,1125.908,687.097z M1123.363,690.666h5.074c-0.016-1.153-0.784-2.577-2.545-2.577
			C1124.244,688.089,1123.427,689.481,1123.363,690.666z"/>
		<path d="M1131.554,687.289h1.201v1.249c0.624-0.816,1.52-1.408,2.576-1.408v1.232c-0.144-0.032-0.287-0.048-0.479-0.048
			c-0.736,0-1.745,0.608-2.097,1.233v5.474h-1.201V687.289z"/>
	</g>
</g>
<g>
	<g>
		<path d="M1196.667,692.971c0.464,0.56,1.088,1.056,2.017,1.056c1.312,0,2.145-0.912,2.145-2.241v-7.443h1.329v7.459
			c0,2.321-1.489,3.409-3.394,3.409c-1.137,0-2.049-0.368-2.785-1.233L1196.667,692.971z"/>
		<path d="M1209.437,694.139c-0.641,0.704-1.521,1.073-2.562,1.073c-1.312,0-2.705-0.88-2.705-2.561
			c0-1.729,1.393-2.545,2.705-2.545c1.057,0,1.937,0.336,2.562,1.056v-1.392c0-1.041-0.833-1.633-1.953-1.633
			c-0.929,0-1.681,0.336-2.369,1.073l-0.561-0.832c0.833-0.865,1.825-1.281,3.09-1.281c1.633,0,2.993,0.736,2.993,2.609v5.314h-1.2
			V694.139z M1209.437,691.93c-0.465-0.64-1.281-0.96-2.129-0.96c-1.121,0-1.905,0.704-1.905,1.697c0,0.977,0.784,1.681,1.905,1.681
			c0.848,0,1.664-0.32,2.129-0.96V691.93z"/>
		<path d="M1218.253,689.962c0-1.361-0.688-1.793-1.729-1.793c-0.944,0-1.841,0.576-2.289,1.2v5.65h-1.2v-7.731h1.2v1.121
			c0.544-0.64,1.601-1.312,2.753-1.312c1.616,0,2.465,0.816,2.465,2.497v5.426h-1.2V689.962z"/>
		<path d="M1227.068,693.931c-0.592,0.672-1.601,1.281-2.753,1.281c-1.616,0-2.465-0.784-2.465-2.465v-5.458h1.2v5.09
			c0,1.361,0.688,1.761,1.729,1.761c0.944,0,1.84-0.544,2.288-1.168v-5.682h1.201v7.731h-1.201V693.931z"/>
		<path d="M1235.501,694.139c-0.641,0.704-1.521,1.073-2.562,1.073c-1.312,0-2.705-0.88-2.705-2.561
			c0-1.729,1.393-2.545,2.705-2.545c1.057,0,1.937,0.336,2.562,1.056v-1.392c0-1.041-0.833-1.633-1.953-1.633
			c-0.929,0-1.681,0.336-2.369,1.073l-0.561-0.832c0.833-0.865,1.825-1.281,3.09-1.281c1.633,0,2.993,0.736,2.993,2.609v5.314h-1.2
			V694.139z M1235.501,691.93c-0.465-0.64-1.281-0.96-2.129-0.96c-1.121,0-1.905,0.704-1.905,1.697c0,0.977,0.784,1.681,1.905,1.681
			c0.848,0,1.664-0.32,2.129-0.96V691.93z"/>
		<path d="M1239.098,687.289h1.2v1.249c0.624-0.816,1.521-1.408,2.577-1.408v1.232c-0.145-0.032-0.288-0.048-0.48-0.048
			c-0.736,0-1.745,0.608-2.097,1.233v5.474h-1.2V687.289z"/>
		<path d="M1244.795,697.085c0.528,0,0.88-0.176,1.152-0.816l0.512-1.168l-3.233-7.811h1.297l2.577,6.339l2.561-6.339h1.312
			l-3.873,9.3c-0.464,1.12-1.249,1.553-2.273,1.569c-0.256,0-0.656-0.048-0.88-0.112l0.192-1.088
			C1244.314,697.037,1244.602,697.085,1244.795,697.085z"/>
	</g>
</g>
<g>
	<g>
		<path d="M1315.871,684.343h6.994v1.184h-5.666v3.441h5.555v1.185h-5.555v4.866h-1.328V684.343z"/>
		<path d="M1327.984,687.097c2.337,0,3.713,1.825,3.713,4.146v0.304h-6.258c0.096,1.457,1.12,2.673,2.785,2.673
			c0.88,0,1.776-0.352,2.385-0.976l0.576,0.784c-0.769,0.768-1.809,1.185-3.073,1.185c-2.289,0-3.938-1.649-3.938-4.066
			C1324.175,688.905,1325.775,687.097,1327.984,687.097z M1325.439,690.666h5.074c-0.017-1.153-0.785-2.577-2.545-2.577
			C1326.319,688.089,1325.504,689.481,1325.439,690.666z"/>
		<path d="M1333.631,684.343h1.2v4.114c0.624-0.848,1.553-1.36,2.609-1.36c2.017,0,3.44,1.601,3.44,4.065
			c0,2.513-1.424,4.05-3.44,4.05c-1.089,0-2.033-0.56-2.609-1.344v1.152h-1.2V684.343z M1337.136,694.139
			c1.568,0,2.496-1.264,2.496-2.977c0-1.713-0.928-2.993-2.496-2.993c-0.945,0-1.889,0.576-2.306,1.249v3.505
			C1335.248,693.595,1336.191,694.139,1337.136,694.139z"/>
		<path d="M1342.831,687.289h1.2v1.249c0.625-0.816,1.521-1.408,2.577-1.408v1.232c-0.144-0.032-0.288-0.048-0.479-0.048
			c-0.736,0-1.746,0.608-2.098,1.233v5.474h-1.2V687.289z"/>
		<path d="M1353.328,693.931c-0.592,0.672-1.601,1.281-2.753,1.281c-1.616,0-2.465-0.784-2.465-2.465v-5.458h1.2v5.09
			c0,1.361,0.688,1.761,1.729,1.761c0.945,0,1.841-0.544,2.289-1.168v-5.682h1.201v7.731h-1.201V693.931z"/>
		<path d="M1361.76,694.139c-0.641,0.704-1.521,1.073-2.562,1.073c-1.312,0-2.705-0.88-2.705-2.561c0-1.729,1.393-2.545,2.705-2.545
			c1.057,0,1.938,0.336,2.562,1.056v-1.392c0-1.041-0.833-1.633-1.953-1.633c-0.929,0-1.681,0.336-2.368,1.073l-0.561-0.832
			c0.832-0.865,1.824-1.281,3.089-1.281c1.633,0,2.993,0.736,2.993,2.609v5.314h-1.2V694.139z M1361.76,691.93
			c-0.464-0.64-1.28-0.96-2.129-0.96c-1.12,0-1.905,0.704-1.905,1.697c0,0.977,0.785,1.681,1.905,1.681
			c0.849,0,1.665-0.32,2.129-0.96V691.93z"/>
		<path d="M1365.358,687.289h1.2v1.249c0.625-0.816,1.521-1.408,2.577-1.408v1.232c-0.144-0.032-0.288-0.048-0.479-0.048
			c-0.736,0-1.746,0.608-2.098,1.233v5.474h-1.2V687.289z"/>
		<path d="M1371.054,697.085c0.527,0,0.88-0.176,1.152-0.816l0.512-1.168l-3.233-7.811h1.297l2.577,6.339l2.561-6.339h1.312
			l-3.873,9.3c-0.465,1.12-1.249,1.553-2.273,1.569c-0.256,0-0.656-0.048-0.881-0.112l0.193-1.088
			C1370.574,697.037,1370.862,697.085,1371.054,697.085z"/>
	</g>
</g>
<g>
	<g>
		<path d="M1415.91,686.136l-3.633,8.884h-0.545l-3.617-8.884v8.884h-1.328v-10.676h1.904l3.313,8.131l3.329-8.131h1.904v10.676
			h-1.328V686.136z"/>
		<path d="M1424.516,694.139c-0.641,0.704-1.521,1.073-2.562,1.073c-1.312,0-2.705-0.88-2.705-2.561
			c0-1.729,1.393-2.545,2.705-2.545c1.057,0,1.938,0.336,2.562,1.056v-1.392c0-1.041-0.833-1.633-1.953-1.633
			c-0.929,0-1.681,0.336-2.368,1.073l-0.561-0.832c0.832-0.865,1.824-1.281,3.089-1.281c1.633,0,2.993,0.736,2.993,2.609v5.314h-1.2
			V694.139z M1424.516,691.93c-0.464-0.64-1.28-0.96-2.129-0.96c-1.12,0-1.905,0.704-1.905,1.697c0,0.977,0.785,1.681,1.905,1.681
			c0.849,0,1.665-0.32,2.129-0.96V691.93z"/>
		<path d="M1428.115,687.289h1.199v1.249c0.625-0.816,1.521-1.408,2.578-1.408v1.232c-0.145-0.032-0.289-0.048-0.48-0.048
			c-0.736,0-1.745,0.608-2.098,1.233v5.474h-1.199V687.289z"/>
		<path d="M1436.802,687.097c1.409,0,2.241,0.576,2.834,1.344l-0.801,0.736c-0.512-0.704-1.168-1.009-1.969-1.009
			c-1.648,0-2.673,1.265-2.673,2.977s1.024,2.993,2.673,2.993c0.801,0,1.457-0.32,1.969-1.008l0.801,0.736
			c-0.593,0.768-1.425,1.344-2.834,1.344c-2.305,0-3.857-1.761-3.857-4.066C1432.945,688.857,1434.498,687.097,1436.802,687.097z"/>
		<path d="M1446.548,689.93c0-1.361-0.704-1.761-1.745-1.761c-0.928,0-1.824,0.576-2.289,1.2v5.65h-1.199v-10.676h1.199v4.066
			c0.545-0.64,1.602-1.312,2.77-1.312c1.617,0,2.465,0.784,2.465,2.465v5.458h-1.2V689.93z"/>
	</g>
</g>
<g>
	<g>
		<path d="M106.383,692.651h-5.41l-0.944,2.369h-1.473l4.289-10.676h1.649l4.306,10.676h-1.473L106.383,692.651z M101.356,691.466
			h4.626l-2.305-5.938L101.356,691.466z"/>
		<path d="M110.139,697.965v-10.677h1.2v1.153c0.561-0.784,1.521-1.344,2.609-1.344c2.033,0,3.441,1.537,3.441,4.05
			c0,2.497-1.408,4.066-3.441,4.066c-1.057,0-1.984-0.496-2.609-1.361v4.114H110.139z M113.645,688.169
			c-0.944,0-1.889,0.56-2.306,1.233v3.489c0.417,0.672,1.361,1.249,2.306,1.249c1.552,0,2.48-1.281,2.48-2.993
			S115.197,688.169,113.645,688.169z"/>
		<path d="M119.323,687.289h1.2v1.249c0.625-0.816,1.521-1.408,2.577-1.408v1.232c-0.144-0.032-0.288-0.048-0.479-0.048
			c-0.736,0-1.745,0.608-2.098,1.233v5.474h-1.2V687.289z"/>
		<path d="M124.395,685.24c0-0.448,0.368-0.816,0.801-0.816c0.447,0,0.815,0.368,0.815,0.816c0,0.448-0.368,0.8-0.815,0.8
			C124.763,686.04,124.395,685.688,124.395,685.24z M124.603,687.289h1.2v7.731h-1.2V687.289z"/>
		<path d="M128.203,684.343h1.2v10.676h-1.2V684.343z"/>
	</g>
</g>
</svg>
