<!-- Generator: Adobe Illustrator 25.2.0, SVG Export Plug-In  -->
<svg version="1.1" xmlns="http://www.w3.org/2000/svg" xmlns:xlink="http://www.w3.org/1999/xlink" x="0px" y="0px"
	 width="311.626px" height="48.989px" viewBox="0 0 311.626 48.989"
	 style="overflow:visible;enable-background:new 0 0 311.626 48.989;" xml:space="preserve">
<style type="text/css">
	.st0{fill:#7F7F7F;}
</style>
<defs>
</defs>
<g>
	<path class="st0" d="M50.896,0h6.535c2.553,0,4.115,1.54,4.115,3.741c0,1.848-1.232,3.08-2.574,3.366
		c1.562,0.242,2.86,1.848,2.86,3.609c0,2.354-1.562,3.961-4.247,3.961h-6.689V0z M57.123,6.359c1.65,0,2.53-1.012,2.53-2.354
		c0-1.32-0.88-2.376-2.53-2.376h-4.401v4.731H57.123z M57.211,13.048c1.716,0,2.729-0.968,2.729-2.53c0-1.342-0.924-2.53-2.729-2.53
		h-4.489v5.061H57.211z"/>
	<path class="st0" d="M65.24,17.515c0.726,0,1.21-0.242,1.584-1.122l0.704-1.606L63.083,4.049h1.782l3.542,8.713l3.521-8.713h1.804
		l-5.325,12.784c-0.638,1.54-1.716,2.134-3.125,2.156c-0.352,0-0.902-0.066-1.21-0.154l0.264-1.496
		C64.58,17.448,64.976,17.515,65.24,17.515z"/>
	<path class="st0" d="M84.49,8.075l-1.474,1.672v4.929h-1.826V0h1.826v7.591L89.507,0h2.288l-6.117,6.975l6.645,7.701h-2.267
		L84.49,8.075z"/>
	<path class="st0" d="M94.346,4.049h1.65v1.716c0.858-1.122,2.09-1.936,3.542-1.936v1.694c-0.198-0.044-0.396-0.066-0.66-0.066
		c-1.012,0-2.398,0.836-2.883,1.694v7.525h-1.65V4.049z"/>
	<path class="st0" d="M101.319,1.232c0-0.616,0.506-1.122,1.1-1.122c0.616,0,1.122,0.506,1.122,1.122s-0.506,1.1-1.122,1.1
		C101.825,2.332,101.319,1.848,101.319,1.232z M101.605,4.049h1.65v10.628h-1.65V4.049z"/>
	<path class="st0" d="M106.489,12.08c0.704,0.814,2.046,1.518,3.498,1.518c1.628,0,2.509-0.726,2.509-1.76
		c0-1.166-1.298-1.54-2.729-1.892c-1.804-0.418-3.851-0.902-3.851-3.102c0-1.65,1.43-3.058,3.96-3.058
		c1.804,0,3.081,0.682,3.938,1.54l-0.77,1.144c-0.638-0.77-1.804-1.342-3.168-1.342c-1.452,0-2.354,0.66-2.354,1.606
		c0,1.034,1.21,1.364,2.597,1.694c1.848,0.418,3.982,0.946,3.982,3.301c0,1.782-1.43,3.212-4.181,3.212
		c-1.738,0-3.212-0.528-4.291-1.672L106.489,12.08z"/>
	<path class="st0" d="M122.527,0h6.535c2.553,0,4.115,1.54,4.115,3.741c0,1.848-1.232,3.08-2.574,3.366
		c1.562,0.242,2.86,1.848,2.86,3.609c0,2.354-1.562,3.961-4.247,3.961h-6.689V0z M128.754,6.359c1.65,0,2.53-1.012,2.53-2.354
		c0-1.32-0.88-2.376-2.53-2.376h-4.401v4.731H128.754z M128.842,13.048c1.716,0,2.729-0.968,2.729-2.53
		c0-1.342-0.924-2.53-2.729-2.53h-4.489v5.061H128.842z"/>
	<path class="st0" d="M137.179,12.476c0.66,0,1.21,0.55,1.21,1.21c0,0.66-0.55,1.21-1.21,1.21s-1.21-0.55-1.21-1.21
		C135.969,13.026,136.519,12.476,137.179,12.476z"/>
	<path class="st0" d="M159.643,2.464l-4.995,12.212h-0.748l-4.973-12.212v12.212h-1.826V0h2.618l4.555,11.178L158.85,0h2.619v14.676
		h-1.826V2.464z"/>
	<path class="st0" d="M171.478,13.466c-0.88,0.968-2.09,1.474-3.521,1.474c-1.805,0-3.719-1.21-3.719-3.521
		c0-2.376,1.914-3.499,3.719-3.499c1.452,0,2.662,0.462,3.521,1.452V7.459c0-1.43-1.145-2.244-2.685-2.244
		c-1.276,0-2.311,0.462-3.256,1.474l-0.77-1.144c1.144-1.188,2.508-1.76,4.247-1.76c2.244,0,4.114,1.012,4.114,3.587v7.305h-1.65
		V13.466z M171.478,10.43c-0.638-0.88-1.76-1.32-2.927-1.32c-1.54,0-2.618,0.968-2.618,2.332c0,1.342,1.078,2.31,2.618,2.31
		c1.167,0,2.289-0.44,2.927-1.32V10.43z"/>
	<path class="st0" d="M189.254,7.459c0-1.342-0.594-2.2-1.958-2.2c-1.101,0-2.267,0.792-2.816,1.628v7.789h-1.65V7.459
		c0-1.342-0.572-2.2-1.958-2.2c-1.078,0-2.222,0.792-2.794,1.65v7.767h-1.65V4.049h1.65v1.54c0.44-0.682,1.871-1.804,3.433-1.804
		c1.628,0,2.552,0.88,2.86,1.98c0.594-0.968,2.024-1.98,3.564-1.98c1.937,0,2.971,1.078,2.971,3.213v7.679h-1.65V7.459z"/>
	<path class="st0" d="M201.375,13.18c-0.814,0.924-2.2,1.76-3.785,1.76c-2.222,0-3.388-1.078-3.388-3.388V4.049h1.65v6.997
		c0,1.87,0.946,2.42,2.376,2.42c1.298,0,2.53-0.748,3.146-1.606V4.049h1.65v10.628h-1.65V13.18z"/>
	<path class="st0" d="M206.324,0h1.65v14.676h-1.65V0z"/>
	<path class="st0" d="M217.919,13.466c-0.88,0.968-2.09,1.474-3.521,1.474c-1.805,0-3.719-1.21-3.719-3.521
		c0-2.376,1.914-3.499,3.719-3.499c1.452,0,2.662,0.462,3.521,1.452V7.459c0-1.43-1.145-2.244-2.685-2.244
		c-1.276,0-2.311,0.462-3.256,1.474l-0.77-1.144c1.144-1.188,2.508-1.76,4.247-1.76c2.244,0,4.114,1.012,4.114,3.587v7.305h-1.65
		V13.466z M217.919,10.43c-0.638-0.88-1.76-1.32-2.927-1.32c-1.54,0-2.618,0.968-2.618,2.332c0,1.342,1.078,2.31,2.618,2.31
		c1.167,0,2.289-0.44,2.927-1.32V10.43z"/>
	<path class="st0" d="M235.189,13.466c-0.88,0.968-2.09,1.474-3.521,1.474c-1.805,0-3.719-1.21-3.719-3.521
		c0-2.376,1.914-3.499,3.719-3.499c1.452,0,2.662,0.462,3.521,1.452V7.459c0-1.43-1.145-2.244-2.685-2.244
		c-1.276,0-2.311,0.462-3.256,1.474l-0.771-1.144c1.145-1.188,2.509-1.76,4.247-1.76c2.244,0,4.114,1.012,4.114,3.587v7.305h-1.65
		V13.466z M235.189,10.43c-0.638-0.88-1.76-1.32-2.927-1.32c-1.54,0-2.618,0.968-2.618,2.332c0,1.342,1.078,2.31,2.618,2.31
		c1.167,0,2.289-0.44,2.927-1.32V10.43z"/>
	<path class="st0" d="M247.311,7.723c0-1.87-0.946-2.464-2.376-2.464c-1.298,0-2.53,0.792-3.146,1.65v7.767h-1.65V4.049h1.65v1.54
		c0.749-0.88,2.201-1.804,3.785-1.804c2.222,0,3.389,1.122,3.389,3.432v7.459h-1.65V7.723z"/>
	<path class="st0" d="M259.961,13.092c-0.792,1.078-2.09,1.848-3.587,1.848c-2.772,0-4.73-2.112-4.73-5.567
		c0-3.389,1.936-5.589,4.73-5.589c1.43,0,2.729,0.704,3.587,1.87V0h1.65v14.676h-1.65V13.092z M259.961,6.975
		c-0.594-0.924-1.871-1.716-3.19-1.716c-2.135,0-3.411,1.76-3.411,4.115s1.276,4.093,3.411,4.093c1.32,0,2.596-0.748,3.19-1.672
		V6.975z"/>
	<path class="st0" d="M10.759,41.42H3.322l-1.298,3.256H0L5.896,30h2.267l5.919,14.676h-2.024L10.759,41.42z M3.851,39.792h6.359
		l-3.168-8.163L3.851,39.792z"/>
	<path class="st0" d="M15.928,30h1.65v14.676h-1.65V30z"/>
	<path class="st0" d="M25.499,33.785c3.212,0,5.104,2.508,5.104,5.699v0.418H22c0.132,2.002,1.54,3.674,3.829,3.674
		c1.21,0,2.442-0.484,3.278-1.342l0.792,1.078c-1.056,1.056-2.486,1.628-4.225,1.628c-3.146,0-5.413-2.266-5.413-5.589
		C20.262,36.271,22.462,33.785,25.499,33.785z M22,38.691h6.975c-0.022-1.584-1.078-3.542-3.499-3.542
		C23.21,35.149,22.088,37.063,22,38.691z"/>
	<path class="st0" d="M36.256,40.32l-3.19,4.357h-1.892l4.07-5.457l-3.851-5.171h1.915l2.948,4.049l2.949-4.049h1.914l-3.851,5.171
		l4.093,5.457h-1.915L36.256,40.32z"/>
	<path class="st0" d="M49.896,43.466c-0.88,0.968-2.09,1.474-3.521,1.474c-1.805,0-3.719-1.21-3.719-3.521
		c0-2.376,1.914-3.499,3.719-3.499c1.452,0,2.662,0.462,3.521,1.452v-1.914c0-1.43-1.145-2.244-2.685-2.244
		c-1.276,0-2.311,0.462-3.256,1.474l-0.77-1.144c1.144-1.188,2.508-1.76,4.247-1.76c2.244,0,4.114,1.012,4.114,3.587v7.305h-1.65
		V43.466z M49.896,40.43c-0.638-0.88-1.76-1.32-2.927-1.32c-1.54,0-2.618,0.968-2.618,2.332c0,1.342,1.078,2.31,2.618,2.31
		c1.167,0,2.289-0.44,2.927-1.32V40.43z"/>
	<path class="st0" d="M62.018,37.723c0-1.87-0.946-2.464-2.376-2.464c-1.298,0-2.53,0.792-3.146,1.65v7.767h-1.65V34.049h1.65v1.54
		c0.748-0.88,2.201-1.804,3.785-1.804c2.222,0,3.389,1.122,3.389,3.432v7.459h-1.65V37.723z"/>
	<path class="st0" d="M74.668,43.092c-0.792,1.078-2.09,1.848-3.587,1.848c-2.772,0-4.73-2.112-4.73-5.567
		c0-3.389,1.936-5.589,4.73-5.589c1.43,0,2.729,0.704,3.587,1.87V30h1.65v14.676h-1.65V43.092z M74.668,36.975
		c-0.594-0.924-1.871-1.716-3.191-1.716c-2.134,0-3.41,1.76-3.41,4.115s1.276,4.093,3.41,4.093c1.32,0,2.597-0.748,3.191-1.672
		V36.975z"/>
	<path class="st0" d="M79.617,34.049h1.65v1.716c0.858-1.122,2.09-1.936,3.542-1.936v1.694c-0.198-0.044-0.396-0.066-0.66-0.066
		c-1.012,0-2.398,0.836-2.883,1.694v7.525h-1.65V34.049z"/>
	<path class="st0" d="M93.522,43.466c-0.88,0.968-2.09,1.474-3.521,1.474c-1.805,0-3.719-1.21-3.719-3.521
		c0-2.376,1.914-3.499,3.719-3.499c1.452,0,2.662,0.462,3.521,1.452v-1.914c0-1.43-1.145-2.244-2.685-2.244
		c-1.276,0-2.311,0.462-3.256,1.474l-0.771-1.144c1.145-1.188,2.509-1.76,4.247-1.76c2.244,0,4.114,1.012,4.114,3.587v7.305h-1.65
		V43.466z M93.522,40.43c-0.638-0.88-1.76-1.32-2.927-1.32c-1.54,0-2.618,0.968-2.618,2.332c0,1.342,1.078,2.31,2.618,2.31
		c1.167,0,2.289-0.44,2.927-1.32V40.43z"/>
	<path class="st0" d="M112.2,32.838l-3.235,11.838h-1.98L102.804,30h2.024l3.256,12.234L111.451,30h1.519l3.366,12.234L119.57,30
		h2.024l-4.181,14.676h-1.98L112.2,32.838z"/>
	<path class="st0" d="M123.286,31.232c0-0.616,0.506-1.122,1.1-1.122c0.616,0,1.122,0.506,1.122,1.122s-0.506,1.1-1.122,1.1
		C123.792,32.332,123.286,31.848,123.286,31.232z M123.572,34.049h1.65v10.628h-1.65V34.049z"/>
	<path class="st0" d="M141.35,37.459c0-1.342-0.594-2.2-1.958-2.2c-1.101,0-2.267,0.792-2.816,1.628v7.789h-1.65v-7.217
		c0-1.342-0.572-2.2-1.958-2.2c-1.078,0-2.222,0.792-2.794,1.65v7.767h-1.65V34.049h1.65v1.54c0.44-0.682,1.871-1.804,3.433-1.804
		c1.628,0,2.552,0.88,2.86,1.98c0.594-0.968,2.024-1.98,3.564-1.98c1.937,0,2.971,1.078,2.971,3.213v7.679h-1.65V37.459z"/>
	<path class="st0" d="M146.298,30h1.65v14.676h-1.65V30z"/>
	<path class="st0" d="M155.869,33.785c3.212,0,5.104,2.508,5.104,5.699v0.418h-8.603c0.132,2.002,1.54,3.674,3.829,3.674
		c1.21,0,2.442-0.484,3.278-1.342l0.792,1.078c-1.056,1.056-2.486,1.628-4.225,1.628c-3.146,0-5.413-2.266-5.413-5.589
		C150.632,36.271,152.832,33.785,155.869,33.785z M152.37,38.691h6.975c-0.022-1.584-1.078-3.542-3.499-3.542
		C153.58,35.149,152.458,37.063,152.37,38.691z"/>
	<path class="st0" d="M164.206,47.515c0.726,0,1.21-0.242,1.584-1.122l0.704-1.606l-4.445-10.738h1.782l3.542,8.713l3.521-8.713
		h1.804l-5.325,12.784c-0.638,1.54-1.716,2.134-3.125,2.156c-0.352,0-0.902-0.066-1.21-0.154l0.264-1.496
		C163.545,47.448,163.942,47.515,164.206,47.515z"/>
	<path class="st0" d="M180.155,29.56h1.21v15.556h-1.21V29.56z"/>
	<path class="st0" d="M190.473,30h5.897c2.948,0,4.599,2.024,4.599,4.423c0,2.398-1.694,4.423-4.599,4.423h-4.071v5.831h-1.826V30z
		 M196.15,31.628h-3.851v5.589h3.851c1.738,0,2.926-1.144,2.926-2.794C199.076,32.772,197.888,31.628,196.15,31.628z"/>
	<path class="st0" d="M202.419,39.351c0-3.08,2.024-5.567,5.259-5.567s5.259,2.486,5.259,5.567c0,3.081-2.024,5.589-5.259,5.589
		S202.419,42.432,202.419,39.351z M211.198,39.351c0-2.156-1.254-4.093-3.521-4.093c-2.267,0-3.542,1.936-3.542,4.093
		c0,2.178,1.276,4.115,3.542,4.115C209.944,43.466,211.198,41.53,211.198,39.351z"/>
	<path class="st0" d="M215.553,42.08c0.704,0.814,2.046,1.518,3.499,1.518c1.628,0,2.509-0.726,2.509-1.76
		c0-1.166-1.298-1.54-2.729-1.892c-1.804-0.418-3.851-0.902-3.851-3.102c0-1.65,1.43-3.058,3.96-3.058
		c1.804,0,3.081,0.682,3.938,1.54l-0.77,1.144c-0.638-0.77-1.804-1.342-3.168-1.342c-1.452,0-2.354,0.66-2.354,1.606
		c0,1.034,1.21,1.364,2.597,1.694c1.848,0.418,3.982,0.946,3.982,3.301c0,1.782-1.43,3.212-4.181,3.212
		c-1.738,0-3.212-0.528-4.291-1.672L215.553,42.08z"/>
	<path class="st0" d="M226.179,42.454v-6.953h-1.76v-1.452h1.76v-2.904h1.65v2.904h2.156v1.452h-2.156v6.601
		c0,0.792,0.352,1.364,1.078,1.364c0.462,0,0.902-0.198,1.123-0.44l0.484,1.232c-0.418,0.396-1.012,0.682-1.98,0.682
		C226.971,44.94,226.179,44.038,226.179,42.454z"/>
	<path class="st0" d="M231.327,38.625h5.281v1.452h-5.281V38.625z"/>
	<path class="st0" d="M245.936,29.758c2.596,0,4.4,1.144,5.699,2.75l-1.452,0.902c-0.924-1.188-2.486-2.024-4.247-2.024
		c-3.213,0-5.655,2.464-5.655,5.963c0,3.476,2.442,5.985,5.655,5.985c1.76,0,3.212-0.858,3.938-1.584v-2.992h-5.039v-1.628h6.865
		v5.303c-1.364,1.518-3.367,2.53-5.765,2.53c-4.181,0-7.547-3.058-7.547-7.613S241.755,29.758,245.936,29.758z"/>
	<path class="st0" d="M261.248,43.466c-0.88,0.968-2.09,1.474-3.521,1.474c-1.805,0-3.719-1.21-3.719-3.521
		c0-2.376,1.914-3.499,3.719-3.499c1.452,0,2.662,0.462,3.521,1.452v-1.914c0-1.43-1.145-2.244-2.685-2.244
		c-1.276,0-2.311,0.462-3.256,1.474l-0.771-1.144c1.145-1.188,2.509-1.76,4.247-1.76c2.244,0,4.114,1.012,4.114,3.587v7.305h-1.65
		V43.466z M261.248,40.43c-0.638-0.88-1.76-1.32-2.927-1.32c-1.54,0-2.618,0.968-2.618,2.332c0,1.342,1.078,2.31,2.618,2.31
		c1.167,0,2.289-0.44,2.927-1.32V40.43z"/>
	<path class="st0" d="M265.69,43.4l5.853-7.899h-5.853v-1.452h8.009v1.254l-5.897,7.943h5.985v1.43h-8.097V43.4z"/>
	<path class="st0" d="M281.201,33.785c3.212,0,5.104,2.508,5.104,5.699v0.418h-8.603c0.132,2.002,1.54,3.674,3.829,3.674
		c1.21,0,2.442-0.484,3.278-1.342l0.792,1.078c-1.056,1.056-2.486,1.628-4.225,1.628c-3.146,0-5.413-2.266-5.413-5.589
		C275.964,36.271,278.164,33.785,281.201,33.785z M277.702,38.691h6.975c-0.022-1.584-1.078-3.542-3.499-3.542
		C278.912,35.149,277.79,37.063,277.702,38.691z"/>
	<path class="st0" d="M289.296,42.454v-6.953h-1.76v-1.452h1.76v-2.904h1.65v2.904h2.156v1.452h-2.156v6.601
		c0,0.792,0.352,1.364,1.078,1.364c0.462,0,0.902-0.198,1.123-0.44l0.484,1.232c-0.418,0.396-1.012,0.682-1.98,0.682
		C290.088,44.94,289.296,44.038,289.296,42.454z"/>
	<path class="st0" d="M295.764,42.454v-6.953h-1.76v-1.452h1.76v-2.904h1.65v2.904h2.156v1.452h-2.156v6.601
		c0,0.792,0.352,1.364,1.078,1.364c0.462,0,0.902-0.198,1.123-0.44l0.484,1.232c-0.418,0.396-1.012,0.682-1.98,0.682
		C296.556,44.94,295.764,44.038,295.764,42.454z"/>
	<path class="st0" d="M306.522,33.785c3.212,0,5.104,2.508,5.104,5.699v0.418h-8.603c0.132,2.002,1.54,3.674,3.829,3.674
		c1.21,0,2.442-0.484,3.278-1.342l0.792,1.078c-1.056,1.056-2.486,1.628-4.225,1.628c-3.146,0-5.413-2.266-5.413-5.589
		C301.285,36.271,303.485,33.785,306.522,33.785z M303.023,38.691h6.975c-0.022-1.584-1.078-3.542-3.499-3.542
		C304.233,35.149,303.111,37.063,303.023,38.691z"/>
</g>
</svg>
