<!-- Generator: Adobe Illustrator 25.2.0, SVG Export Plug-In  -->
<svg version="1.1" xmlns="http://www.w3.org/2000/svg" xmlns:xlink="http://www.w3.org/1999/xlink" x="0px" y="0px"
	 width="557.85px" height="1111.776px" viewBox="0 0 557.85 1111.776"
	 style="overflow:visible;enable-background:new 0 0 557.85 1111.776;" xml:space="preserve">
<style type="text/css">
	.st0{fill:#CACBCC;}
	.st1{fill:#E8EAEC;}
</style>
<defs>
</defs>
<path class="st0" d="M188.439,867.876"/>
<path class="st0" d="M341.698,519.46c0,0,39.456-5.976,47.885,18.075c8.43,24.051,0.071,24.096,0.071,24.096
	s30.872,5.888,28.149,24.752s20.77,24.734,28.149,24.752c7.379,0.018-8.233,2.004-3.308,17.427
	c4.925,15.423,27.061,15.477,21.749,24.671c-5.312,9.194-26.17,10.839-17.494,32.508c0,0-11.468,26.706-3.652,38.842
	c7.815,12.136-15.677,9.419-22.256,1.133c-6.579-8.286-10.102-9.535-19.737-21.704c-9.634-12.169-20.31-22.103-29.784-21.842
	c-9.473,0.262,0.351-9.86-8.87-18.294c-9.222-8.434-31.442-14.7-26.569-24.447c4.873-9.746,10.617-35.199,4.361-40.699
	c-6.255-5.501,5.73-11.772,1.994-23.29C338.65,563.921,324.369,555.985,341.698,519.46z"/>
<path class="st0" d="M375.152,228.423c0,0,6.024,11.503-9.54,26.39s9.54,55.757,9.54,55.757
	c66.655,113.979,31.955,188.257-71.778,297.113s-83.576,493.394-83.576,493.394c-29.192,24.073-31.359,0-31.359,0
	s-39.734-340.521,70.425-489.232c69.735-94.139,191.426-204.168,76.18-305.302c0,0-14.366,0.784-21.295-9.408
	c-6.929-10.192-10.065-14.896-10.065-14.896s2.352,3.92-45.471,0C258.214,282.24,271.988,229.178,375.152,228.423z"/>
<path class="st0" d="M213.164,773.959c0,0-32.156-29.031-50.019-10.854c-13.017,13.246-17.596,18.557-17.596,18.557
	s-35.854-13.997-34.836-3.169c2.188,23.272-28.682,19.752-34.886,15.756c-6.204-3.995,5.821,6.157-6.695,16.426
	s-22.886,4.569-23.424,15.173c-0.538,10.605,7.835,17.037-11.225,30.51c0,0-4.889,28.65-18.045,34.589
	c-13.156,5.939,12.066,6.957,22.092,3.578s9.637,6.956,24.338,1.978s29.062-7.515,36.872-2.146s5.064-8.468,17.389-10.535
	s34.382,4.749,35.589-6.08s9.068-25.131,17.308-26.348c8.24-1.217,2.74-23.181,12.136-30.819
	C191.558,812.937,207.859,814.037,213.164,773.959z"/>
<path class="st0" d="M228.4,254.568c0,0,11.938,0,42.289,0s58.653-46.226,59.596-59.433
	C331.229,181.927,198.587,226.896,228.4,254.568z"/>
<path class="st0" d="M19.913,266.509c-17.69,13.415-4.107,35.382,55.965,22.569c60.072-12.813,156.796-24.272,152.523-34.51
	c-4.273-10.238-72.641-30.188-115.093-20.754S30.29,258.64,19.913,266.509z"/>
<path class="st0" d="M334.885,212.964c0,0-20.744,8.97-19.062,0c1.682-8.97,30.836-46.534,53.822-72.884
	c22.986-26.35,50.458-58.307,71.763-60.55c21.305-2.243,29.714,15.698,7.849,32.517S338.81,196.705,334.885,212.964z"/>
<path class="st0" d="M343.145,203.586c0,0,61.613-52.934,99.398-64.994s79.591-12.863,100.493-32.962
	c20.903-20.099,26.188-62.877-28.138-41.001s-58.172,34.398-83.482,49.845C381.916,144.684,343.145,203.586,343.145,203.586z"/>
<path class="st0" d="M431.417,105.007c0,0,7.912-44.398,58.56-66.104s60.654-41.39,20.903-37.785
	c-67.427,6.114-91.65,41.48-112.552,78.222c-20.903,36.742-41.001,69.704-31.354,72.116
	C376.62,153.867,431.417,105.007,431.417,105.007z"/>
<path class="st0" d="M214.441,245.987c0,0-79.585-35.801-116.515-33.192s-56.679-6.087-44.195-24.35s38.522-35.57,68.55-31.265
	c30.028,4.306,107.508,66.92,112.25,78.225c4.742,11.305,36.16,19.163,36.16,19.163L214.441,245.987z"/>
<path class="st0" d="M364.486,164.033c0,0,2.532-20.315,29.501-65.874s60.264-98.398,25.36-98.159S362.12,20.339,351.045,58.56
	c-11.075,38.221-33.619,128.124-20.759,136.575C343.145,203.586,364.486,164.033,364.486,164.033z"/>
<path class="st0" d="M314.885,192.761"/>
<path class="st0" d="M298.711,131.073c-16.231-50.563-21.728-78.766,8.139-95.037s48.762-1.504,44.195,47.518
	s-14.172,83.022-20.759,111.58s-14.463,17.829-14.463,17.829L298.711,131.073z"/>
<path class="st0" d="M262.654,223.665c0,0-33.551-17.274-46.774-75.52c-13.223-58.246,59.351-74.643,75.164-65.122
	s23.228,122.518,23.228,122.518L262.654,223.665z"/>
<path class="st0" d="M164.384,192.761c0,0-18.555-24.602,8.067-40.683s48.299-3.173,63.276,12.961s45.177,51.389,34.962,63.384
	s-34.962,14.166-34.962,14.166L164.384,192.761z"/>
<path class="st0" d="M295.307,237.183c0,0-9.905,13.187,3.854,12.8c13.759-0.388,84.69-18.107,98.496-24.374
	s52.841-31.479,52.841-41.951s1.088-12.645-29.515-17.454c-25.074-3.94-95.361,41.135-108.062,59.405
	C306.696,234.562,295.307,237.183,295.307,237.183z"/>
<path class="st0" d="M291.044,246.764c0,0-17.361,48.37-66.417,83.275s-76.414,39.622-99.055,36.792
	C102.93,364.001,135.765,297.45,291.044,246.764z"/>
<path class="st0" d="M1.045,344.189c0,0-7.547,31.132,17.924,15.094c25.471-16.038,149.531-84.606,219.103-92.774
	s43.157-25.149,22.403-26.092C239.721,239.474,66.138,264.002,1.045,344.189z"/>
<path class="st1" d="M262.196,215.355c-33.796,39.213-17.342,51.246,17.767,25.623s35.763-22.242,64.082-42.271
	c17.738-12.546,9.244-28.859-8.1-27.338C318.601,172.89,273.53,202.204,262.196,215.355z"/>
</svg>
