<?xml version="1.0" encoding="utf-8"?>
<!-- Generator: Adobe Illustrator 25.2.0, SVG Export Plug-In . SVG Version: 6.00 Build 0)  -->
<svg version="1.1" id="Layer_1" xmlns="http://www.w3.org/2000/svg" xmlns:xlink="http://www.w3.org/1999/xlink" x="0px" y="0px"
	 width="136.1px" height="113.4px" viewBox="0 0 136.1 113.4" style="enable-background:new 0 0 136.1 113.4;" xml:space="preserve"
	>
<style type="text/css">
	.st0{fill:#202020;}
</style>
<g>
	<g>
		<path class="st0" d="M64.9,13.4l-4.6,3.1l-0.1,54l-25,17.2c0,0-3.7-3.7-6.2-2.8L29,92.8c0,0-0.4,5.1,5.9,4.6l-22,16V81.7
			c0,0-10.3,2.7-5.1,11.7c0,0-20.5-12.7,4.6-25.7V46.9c0,0-10.4,0.1-4.7,6.6c0,0-7.8,0.8-6.9-9.9c0,0,0.7-7.6,11.6-8.8V13.7
			c0,0-4.1-7.8-8.9,1.6c0,0-1.7-11.7,11.8-12.2C29.8,2.5,29,18.6,29,18.6L45.8,3.5l14.4,12.3l4.5-3L64.9,13.4 M46.1,20.6l-8-8.1
			l-9,7.6v48.1c7.1,1.8,16.9,11,16.9,11L46.1,20.6L46.1,20.6z"/>
		<polygon class="st0" points="34.8,72.8 34.8,1.6 34.3,1.6 34.3,72.8 		"/>
		<path class="st0" d="M46.7,37.4c0,0-2.1,3.5-6,3.2c-4-0.2-5.9-3.1-5.9-3.1l0.2-0.9c0,0,1.9,3.3,5.9,3.5c4,0.2,5.5-3.5,5.5-3.5
			L46.7,37.4L46.7,37.4z"/>
		<path class="st0" d="M46.3,47.3c0,0-2-2.4-5.8-2.2c-3.8,0.2-5.7,2.1-5.7,2.1L35,48c0,0,1.7-2.4,5.5-2.6C44.3,45.2,46,48,46,48
			L46.3,47.3L46.3,47.3z"/>
	</g>
	<g>
		<path class="st0" d="M126.3,0c0,0-0.4,5.8-3.6,7.2c-3.3,1.4-9.2,1.6-14.6-3.7c0,0-13.4,12.2-24.5,16.4v47.2l15.4-11V12.8
			c0,0,7.5,7.2,15.6,5.9c8.1-1.3,12.9-7.5,13-12.5C127.8,1.1,126.3,0,126.3,0L126.3,0z"/>
		<polygon class="st0" points="103.6,81.2 103.6,15.1 102.9,15.1 102.9,81.2 		"/>
		<path class="st0" d="M87.3,13.5c0,0-20.2,12.7-6.5,45c7.5,17.6,22.9,21.6,22.9,21.6s9.4,2.4,13.8-1.8V48.8l-7.1-7.2l-5.8,4.6
			l-0.4-2.2l16.5-13l11.6,10.6l3.5-3l0.3,0.6l-3.4,3.4v28c0,0-7.6,4.2-10.7,6.9c-3.1,2.7-12.2,10.5-21.6,11c0,0-20,1.8-30.6-16
			c-10.6-17.9-5.3-32.6-4.1-36.1C66.9,32.8,72.3,21,87.3,13.5L87.3,13.5z"/>
		<path class="st0" d="M118.2,56.6c0,0-2.6,3.1-7.6,2.9c-5-0.2-7.5-2.8-7.5-2.8l0.3-1.2c0,0,2.4,3.3,7.5,3.5c5,0.2,7-3.5,7-3.5
			L118.2,56.6L118.2,56.6z"/>
	</g>
</g>
</svg>
